<svg viewBox="0 0 330 200" xmlns="http://www.w3.org/2000/svg"><g><g><g><g><g><line x1="34" y1="178" x2="29" y2="178" style="visibility: inherit;" fill="rgb(0, 0, 0)" stroke="rgb(204, 204, 204)" stroke-width="1px"></line><line x1="34" y1="158.22222222222223" x2="29" y2="158.22222222222223" style="visibility: inherit;" fill="rgb(0, 0, 0)" stroke="rgb(204, 204, 204)" stroke-width="1px"></line><line x1="34" y1="138.44444444444446" x2="29" y2="138.44444444444446" style="visibility: inherit;" fill="rgb(0, 0, 0)" stroke="rgb(204, 204, 204)" stroke-width="1px"></line><line x1="34" y1="118.66666666666667" x2="29" y2="118.66666666666667" style="visibility: inherit;" fill="rgb(0, 0, 0)" stroke="rgb(204, 204, 204)" stroke-width="1px"></line><line x1="34" y1="98.8888888888889" x2="29" y2="98.8888888888889" style="visibility: inherit;" fill="rgb(0, 0, 0)" stroke="rgb(204, 204, 204)" stroke-width="1px"></line><line x1="34" y1="79.1111111111111" x2="29" y2="79.1111111111111" style="visibility: inherit;" fill="rgb(0, 0, 0)" stroke="rgb(204, 204, 204)" stroke-width="1px"></line><line x1="34" y1="59.33333333333334" x2="29" y2="59.33333333333334" style="visibility: inherit;" fill="rgb(0, 0, 0)" stroke="rgb(204, 204, 204)" stroke-width="1px"></line><line x1="34" y1="39.55555555555554" x2="29" y2="39.55555555555554" style="visibility: inherit;" fill="rgb(0, 0, 0)" stroke="rgb(204, 204, 204)" stroke-width="1px"></line><line x1="34" y1="19.7777777777778" x2="29" y2="19.7777777777778" style="visibility: inherit;" fill="rgb(0, 0, 0)" stroke="rgb(204, 204, 204)" stroke-width="1px"></line><line x1="34" y1="0" x2="29" y2="0" style="visibility: inherit;" fill="rgb(0, 0, 0)" stroke="rgb(204, 204, 204)" stroke-width="1px"></line></g><g transform="translate(24, 0)"><text x="0" y="178" dx="0em" dy="0.3em" style="text-anchor: end; visibility: hidden; font-family: &quot;Helvetica Neue&quot;, sans-serif; font-size: 12px; font-weight: 200;" fill="rgb(50, 49, 63)" stroke="none" stroke-width="1px">-1</text><text x="0" y="158.22222222222223" dx="0em" dy="0.3em" style="text-anchor: end; visibility: inherit; font-family: &quot;Helvetica Neue&quot;, sans-serif; font-size: 12px; font-weight: 200;" fill="rgb(50, 49, 63)" stroke="none" stroke-width="1px">0</text><text x="0" y="138.44444444444446" dx="0em" dy="0.3em" style="text-anchor: end; visibility: hidden; font-family: &quot;Helvetica Neue&quot;, sans-serif; font-size: 12px; font-weight: 200;" fill="rgb(50, 49, 63)" stroke="none" stroke-width="1px">1</text><text x="0" y="118.66666666666667" dx="0em" dy="0.3em" style="text-anchor: end; visibility: inherit; font-family: &quot;Helvetica Neue&quot;, sans-serif; font-size: 12px; font-weight: 200;" fill="rgb(50, 49, 63)" stroke="none" stroke-width="1px">2</text><text x="0" y="98.8888888888889" dx="0em" dy="0.3em" style="text-anchor: end; visibility: hidden; font-family: &quot;Helvetica Neue&quot;, sans-serif; font-size: 12px; font-weight: 200;" fill="rgb(50, 49, 63)" stroke="none" stroke-width="1px">3</text><text x="0" y="79.1111111111111" dx="0em" dy="0.3em" style="text-anchor: end; visibility: inherit; font-family: &quot;Helvetica Neue&quot;, sans-serif; font-size: 12px; font-weight: 200;" fill="rgb(50, 49, 63)" stroke="none" stroke-width="1px">4</text><text x="0" y="59.33333333333334" dx="0em" dy="0.3em" style="text-anchor: end; visibility: hidden; font-family: &quot;Helvetica Neue&quot;, sans-serif; font-size: 12px; font-weight: 200;" fill="rgb(50, 49, 63)" stroke="none" stroke-width="1px">5</text><text x="0" y="39.55555555555554" dx="0em" dy="0.3em" style="text-anchor: end; visibility: inherit; font-family: &quot;Helvetica Neue&quot;, sans-serif; font-size: 12px; font-weight: 200;" fill="rgb(50, 49, 63)" stroke="none" stroke-width="1px">6</text><text x="0" y="19.7777777777778" dx="0em" dy="0.3em" style="text-anchor: end; visibility: hidden; font-family: &quot;Helvetica Neue&quot;, sans-serif; font-size: 12px; font-weight: 200;" fill="rgb(50, 49, 63)" stroke="none" stroke-width="1px">7</text><text x="0" y="0" dx="0em" dy="0.3em" style="text-anchor: end; visibility: hidden; font-family: &quot;Helvetica Neue&quot;, sans-serif; font-size: 12px; font-weight: 200;" fill="rgb(50, 49, 63)" stroke="none" stroke-width="1px">8</text></g><line x1="34" y1="0" x2="34" y2="178" fill="rgb(0, 0, 0)" stroke="rgb(204, 204, 204)" stroke-width="1px"></line></g></g><g transform="translate(34, 0)" clip-path="url(#clip_0)"><clipPath id="clip_0"><rect width="296" height="178"></rect></clipPath><g><g><g><line x1="0" y1="0" x2="0" y2="178" fill="rgb(0, 0, 0)" stroke="rgb(60, 60, 60)" stroke-width="1px" opacity="0.25"></line><line x1="29.6" y1="0" x2="29.6" y2="178" fill="rgb(0, 0, 0)" stroke="rgb(60, 60, 60)" stroke-width="1px" opacity="0.25"></line><line x1="59.2" y1="0" x2="59.2" y2="178" fill="rgb(0, 0, 0)" stroke="rgb(60, 60, 60)" stroke-width="1px" opacity="0.25"></line><line x1="88.8" y1="0" x2="88.8" y2="178" fill="rgb(0, 0, 0)" stroke="rgb(60, 60, 60)" stroke-width="1px" opacity="0.25"></line><line x1="118.4" y1="0" x2="118.4" y2="178" fill="rgb(0, 0, 0)" stroke="rgb(60, 60, 60)" stroke-width="1px" opacity="0.25"></line><line x1="148" y1="0" x2="148" y2="178" fill="rgb(0, 0, 0)" stroke="rgb(60, 60, 60)" stroke-width="1px" opacity="0.25"></line><line x1="177.6" y1="0" x2="177.6" y2="178" fill="rgb(0, 0, 0)" stroke="rgb(60, 60, 60)" stroke-width="1px" opacity="0.25"></line><line x1="207.2" y1="0" x2="207.2" y2="178" fill="rgb(0, 0, 0)" stroke="rgb(60, 60, 60)" stroke-width="1px" opacity="0.25"></line><line x1="236.8" y1="0" x2="236.8" y2="178" fill="rgb(0, 0, 0)" stroke="rgb(60, 60, 60)" stroke-width="1px" opacity="0.25"></line><line x1="266.40000000000003" y1="0" x2="266.40000000000003" y2="178" fill="rgb(0, 0, 0)" stroke="rgb(60, 60, 60)" stroke-width="1px" opacity="0.25"></line><line x1="296" y1="0" x2="296" y2="178" fill="rgb(0, 0, 0)" stroke="rgb(60, 60, 60)" stroke-width="1px" opacity="0.25"></line></g><g><line x1="0" y1="178" x2="296" y2="178" fill="rgb(0, 0, 0)" stroke="rgb(60, 60, 60)" stroke-width="1px" opacity="0.25"></line><line x1="0" y1="158.22222222222223" x2="296" y2="158.22222222222223" fill="rgb(0, 0, 0)" stroke="rgb(60, 60, 60)" stroke-width="1px" opacity="0.25"></line><line x1="0" y1="138.44444444444446" x2="296" y2="138.44444444444446" fill="rgb(0, 0, 0)" stroke="rgb(60, 60, 60)" stroke-width="1px" opacity="0.25"></line><line x1="0" y1="118.66666666666667" x2="296" y2="118.66666666666667" fill="rgb(0, 0, 0)" stroke="rgb(60, 60, 60)" stroke-width="1px" opacity="0.25"></line><line x1="0" y1="98.8888888888889" x2="296" y2="98.8888888888889" fill="rgb(0, 0, 0)" stroke="rgb(60, 60, 60)" stroke-width="1px" opacity="0.25"></line><line x1="0" y1="79.1111111111111" x2="296" y2="79.1111111111111" fill="rgb(0, 0, 0)" stroke="rgb(60, 60, 60)" stroke-width="1px" opacity="0.25"></line><line x1="0" y1="59.33333333333334" x2="296" y2="59.33333333333334" fill="rgb(0, 0, 0)" stroke="rgb(60, 60, 60)" stroke-width="1px" opacity="0.25"></line><line x1="0" y1="39.55555555555554" x2="296" y2="39.55555555555554" fill="rgb(0, 0, 0)" stroke="rgb(60, 60, 60)" stroke-width="1px" opacity="0.25"></line><line x1="0" y1="19.7777777777778" x2="296" y2="19.7777777777778" fill="rgb(0, 0, 0)" stroke="rgb(60, 60, 60)" stroke-width="1px" opacity="0.25"></line><line x1="0" y1="0" x2="296" y2="0" fill="rgb(0, 0, 0)" stroke="rgb(60, 60, 60)" stroke-width="1px" opacity="0.25"></line></g></g></g><g><g><line x1="0" y1="158.22222222222223" x2="296" y2="158.22222222222223" fill="rgb(0, 0, 0)" stroke="rgb(153, 153, 153)" stroke-width="1.5px"></line></g></g><g><g><line x1="29.6" y1="0" x2="29.6" y2="178" fill="rgb(0, 0, 0)" stroke="rgb(153, 153, 153)" stroke-width="1.5px"></line></g></g><g><g><g><g><g><path stroke="rgb(255, 112, 67)" stroke-width="2px" d="M31.222080000000002,-8.238559051178498L31.42928,0.08226813442377079L31.441119999999998,-9.132325228427675L32.09824,-1.4347156313320681L32.412,0.7984442185104399L32.77904,2.21820772048531L33.0336,10.44754370377018L33.07504,15.233801411136938L33.3592,3.5855231376233405L33.43616,8.874906697343874L33.57824,6.412992417699797L33.8328,5.959872675539259L33.880160000000004,13.198099700211145L34.17024,11.926184081929648L34.25312,18.27977484308812L34.35376,18.093542460020586L34.38928,13.416928689698722L34.55504,18.361829229765533L35.354240000000004,18.775188849372512L35.6088,24.416065586744736L35.91664,18.1060374508115L36.1416,23.588143732596563L36.591519999999996,21.41912803063775L37.071039999999996,21.050407753059602L37.396640000000005,23.811142846304136L37.4144,26.35784943767871L37.497279999999996,23.351539516445882L37.52096,26.32408875715356L37.80512,28.426408811550516L37.846560000000004,31.17571376229384L38.10704,25.25720945877464L38.28464,23.459039791932383L38.622080000000004,21.93038035296655L38.793760000000006,24.745577828749447L38.88848,22.72492572894987L38.983200000000004,20.42766665268016L39.61664,24.90719453364909L39.77648,19.238127924675695L39.871199999999995,24.620530936512637L39.88896,19.47654219465076L40.149440000000006,23.188111223124736L40.5224,28.56012701832472L40.65264,27.498582611206047L40.71776,25.338758628066955L40.95456,29.82201941838133L41.0552,25.007301192990838L41.13216,27.22356236998371L41.659040000000005,24.27492153725109L42.01424,22.42657884805024L42.55296,23.481416516593924L42.623999999999995,25.885841978777023L42.81344,27.37480992732432L42.84896,30.68847195832066L42.967360000000006,37.166568918197186L42.99696,33.92328259339064L43.263360000000006,29.599479360654044L43.3344,31.529032878707966L43.748799999999996,31.124597885455017L44.02704000000001,32.45273504285072L44.12768,38.30844581832653L44.13952,42.27835218270056L44.16912,38.17588073507605L44.317119999999996,39.47708266739113L44.323040000000006,35.590594116764976L44.39408,38.72492404614948L44.42368,39.42753467196596L44.59536,37.65679567331031L44.684160000000006,32.703522043404064L44.71968,34.768944526565974L45.50112,31.088315093760798L45.82672,34.13045216389534L47.17056,33.652225054033835L47.59088,33.74533787903218L47.60864,29.972886321169312L47.952,32.846458979116534L48.31904,28.763573782245288L48.72752,35.92028348375689L48.810399999999994,39.3476055930482L48.82224,34.32244173310755L48.82816,38.50897322535715L49.171519999999994,39.933021544060324L50.207519999999995,41.0967008794527L51.024480000000004,39.94398600211824L51.036319999999996,41.13723413226322L51.332319999999996,39.89284840206028L51.75264,41.95975418012506L52.060480000000005,39.43980442423987L52.1848,39.136834077341206L52.226240000000004,34.146380468919915L52.85968,35.427306922438135L53.025439999999996,40.138019098802516L53.1912,45.80836959187698L53.49904,41.78271699980934L53.866080000000004,43.986611706233276L54.446239999999996,45.22759108278129L54.62976,40.24329335477404L54.65936,38.314484669684106L55.16256,37.14507524869629L55.174400000000006,41.86195931852933L55.65392,43.55516404190968L56.19856,48.56332816316936L56.2992,50.019703983405066L56.42352,46.60033315766188L57.2168,40.193407003836484L57.24048,42.508538573504154L57.287839999999996,41.176920663362495L57.950880000000005,45.11939117772127L58.03376,49.30617577312037L58.25872,48.19877754469633L58.32976000000001,50.91029355352407L58.578399999999995,49.56688112207755L59.034240000000004,47.13207016765844L59.50192,44.711594251406154L59.51376,44.62971788303773L59.833439999999996,50.25804948999516L59.999199999999995,50.60914140393089L60.6208,49.37932422495402L61.153600000000004,50.49574770439244L61.24832,45.48158808627207L61.331199999999995,46.19837464538304L61.692319999999995,49.25552597232911L62.26656,49.95790445228039L62.455999999999996,48.65524927164222L63.2256,46.78485759792457L63.48608,47.35751848636704L63.98928,50.08169647254395L64.08991999999999,41.3734373713736L64.10768,46.821030840521644L64.32079999999999,48.456466406399045L64.36224,45.08554001704363L64.57536,46.36052031285203L64.69968,49.7033328074215L65.06671999999999,53.18833235318121L65.18512,49.41512258763572L65.84224,51.38282137396543L65.90144000000001,50.345257213078256L66.30992,49.586372280999086L66.38688,53.4731758398451L66.4224,53.34072372425754L66.49936,51.54435266784989L66.8368,43.914548892173144L66.97296,49.130723370812774L67.00256,51.36674477281319L67.35184,48.53076001710318L68.20432000000001,52.978176876147316L68.524,54.2492608704936L68.69568,49.367638865503636L69.01536,52.122954747050116L69.24624,52.634269284455115L69.26400000000001,52.30883742075716L69.33504,48.659087598531784L69.51856000000001,49.791093928408856L70.13424,50.17833965918291L70.1816,53.56867032654273L70.2704,49.42070239428992L70.84464,47.25598207500167L70.99856,47.831966184562646L71.1288,47.90716866167887L71.67344,48.85505338749127L71.7208,47.91043083281485L71.96352,50.911298494670476L72.50816,51.29278103975474L72.88704,53.337148404261924L73.1712,49.55441043809208L73.30736,52.390753808496L73.41984000000001,50.54800518392844L73.70992,50.09027695679262L73.76912,53.05387918168462L73.78688,55.80725854776132L73.87568,54.833025367575516L74.07104000000001,53.501333851526766L75.11296,57.12890797523626L75.14847999999999,57.960159319646976L75.54512,57.05849597732693L75.71088,55.65289166564692L75.77008,54.88082954284516L75.97728000000001,51.74377770753219L76.37392000000001,51.78041596398329L76.56336,56.355224591275174L76.91264000000001,55.06393236557781L77.11984,52.98989742051313L77.35664,53.91730194718092L78.03152,51.57184481678674L78.23872,53.237997399783396L78.27424,54.23470882330646L78.68272,55.78804721950743L78.9432,51.36191524576695L79.11488,52.82152261310415L79.14448,52.31326357905229L79.19776,59.278744932980956L79.73056,58.73197974448365L79.74831999999999,58.89382321249424L79.91408,59.24743894702779L79.97327999999999,61.67684874249781L80.31664,57.950919561796425L80.52384,56.46963201356712L80.72512,59.61148027150831L81.08032,56.56116437920002L81.81439999999999,54.202568276771316L82.16368,63.6066270256331L82.3176,58.971036796163276L82.33536000000001,59.6226674132557L82.45967999999999,54.15850115562215L82.50112,57.04159354547832L82.84448,59.55851164554329L82.88000000000001,59.83001640098158L83.21152,60.95639785124976L84.22384000000001,62.09348236716261L84.26527999999999,62.39391099927707L84.42511999999999,61.21065855533608L84.75663999999999,61.27699980510377L84.94608000000001,64.86249089529643L85.32496,63.18518337316961L85.46112,59.953527253448186L85.65648,61.4155442220776L86.12416,60.28246307058649L86.16560000000001,58.71947093351129L86.24256,57.80853828316994L86.59776,51.88669852464372L86.77535999999999,54.916625709295786L86.91152,56.82374438038434L87.01808000000001,56.90330700047723L87.87647999999999,57.53695248743641L88.25536,59.06001066143429L89.14928,61.86559200205805L89.3032,62.54703744203886L89.80048,64.45345210999871L90.43983999999999,69.57759528672405L90.48128,65.78462539238491L91.15024,64.31615589135542L91.16799999999999,60.162099583058165L91.29232,62.482482968964675L91.6416,61.29046066421843L91.7008,61.942510354762064L91.89616000000001,61.324560015347444L92.39936,67.58736228416508L92.58288,63.848811379559365L92.6776,63.56682649211007L92.77824,63.0591648887285L93.01504,64.20047238294414L93.28735999999999,64.33278673583746L93.29328000000001,62.88735412971863L93.42352,61.45375740445334L93.63072,62.28056209037709L93.78464,61.62803633395173L93.83792000000001,67.39143980506395L94.14576,67.07095337753167L94.16352,67.38133714967437L94.36479999999999,69.298537922807L94.38848,73.97664888012193L94.52464,65.6007651340763L94.56016000000001,71.10598450413148L94.572,70.02502029842614L94.80879999999999,68.09369734615638L94.84432,68.49690092485149L94.95088,70.66846237972645L95.32976000000001,67.56591630350047L95.44224,68.73160470017756L95.49552,64.63842770285125L95.89808,66.91899840264878L95.90992,72.0481677598849L96.26512,69.98714892151526L97.2064,72.58920809477114L97.52015999999999,73.7485150997148L97.63856,71.95219693010881L97.82208,71.53430029341413L97.87536,70.28542748643261L97.976,65.79546816347685L98.07664000000001,67.5920298316663L98.56208,67.61336117563822L98.69824,66.96025642434994L98.78112,67.11903414601893L99.2192,70.08477726861722L99.89408,65.9717665788624L100.46239999999999,67.39545809490043L100.492,72.24609778547487L100.70512000000001,65.75351550315341L100.88864,69.65161122958573L101.46288,72.29332871352726L101.6168,73.84286552272629L101.64048000000001,73.83092806234725L101.7352,72.42027323077313L101.98384,70.42596964152105L102.36272000000001,68.86559328834417L102.38048,66.5192773478573L102.4752,67.87307272246223L103.04352,68.79881353975445L103.35728,69.76072462016343L103.91968,66.00432253183655L104.61823999999999,70.76943311871129L104.78399999999999,71.75543729466156L105.13328,72.7685164186806L105.41152,71.436524254488L105.83776,71.42564780193327L105.95024,74.61615801658883L106.2048,75.01869323999347L106.66656,73.23429058151504L106.7672,76.11992693968189L106.92704,72.73393965379937L107.05135999999999,71.24704269140885L107.1224,76.46796964018166L107.2112,76.6802246263806L107.23488,73.60224810455014L107.33552,69.43302337919602L107.54864,65.4121296335289L107.78544000000001,66.34214828386081L107.9808,71.11250383441154L108.632,69.12720227046844L108.94575999999999,70.95863138188012L108.96944,75.83666808270203L109.08784,76.13347396702572L109.37792,66.45450314750872L109.5496,72.36928514893546L109.79823999999999,72.7859925947595L110.10016,73.73797260322885L110.23631999999999,78.46238152675392L110.5856,72.69521303470471L110.60336,75.75165591733973L110.98816000000001,79.00617047606303L111.15984,75.28145950643588L111.36112,75.41468653048099L111.56832,73.77244549372806L111.7992,73.23194696135728L112.34384,74.58846923950425L112.47408,77.5729179694838L112.95952,78.81626626936118L113.79424,80.26449107977263L114.18496,80.47434086181893L114.22640000000001,78.36610853354371L114.27968,76.5022731523528L114.38032,76.40829036439345L114.45136,78.70533658944498L114.48688,79.48965533637099L114.83616,81.54560586119217L115.13216,85.62847679372676L115.41040000000001,78.27735433422487L115.62352000000001,77.1648884594352L115.7656,81.01274914621777L115.78336,80.42449612333722L116.22736,76.95525267006894L116.26288000000001,77.0615908228937L116.44048000000001,77.62550039895541L116.49376000000001,79.35182675406239L116.55296,82.27298247957502L117.0976,78.09600926856098L117.10352,76.99421550749346L117.15088,80.47087482960188L117.17456,80.94456929575104L117.2752,86.75968909230251L117.65408,86.13676010217783L117.76656,72.3035641722008L117.96784,74.96355139089371L118.56576000000001,73.08267566485848L118.93872,79.96292271899702L119.21104,76.65271726461762L119.47152,82.86617000958165L119.584,85.40753274000193L119.98064,86.62129686907168L120.324,82.89549256676908L120.46016,85.30730188941311L121.20608,82.78507053421481L121.21791999999999,89.58743458330558L121.40736000000001,83.8845175160695L121.59088,84.22442223551245L121.94015999999999,84.91260163605304L122.78672,84.06315985095554L122.9288,87.28912644714016L122.98208000000001,85.90237864267104L123.28992,93.91269469506305L123.30768,92.51247900474128L124.20159999999998,84.64418576540716L124.28447999999999,89.50495331647627L124.88832000000001,88.89802375532766L125.01264,88.91088782938205L125.8,89.91941189549163L126.22623999999999,90.23839083117655L126.35647999999999,94.84016703315689L126.45712,91.37998149973355L126.72944000000001,89.31316704196388L126.93072,86.04333888145545L127.31552,87.8652064640458L127.78912,88.49666395818011L127.81872,85.06470386671579L128.23904000000002,88.00625514744917L128.45216,91.50953318134468L128.74224,92.42308600021711L129.10928,92.37429839866678L129.1152,93.73422301774282L129.31647999999998,96.40923337187073L129.39936,92.55648159213285L129.648,93.8557439069263L130.63664,94.86223791164032L130.82016000000002,93.08893662498846L131.02143999999998,95.18266936160333L131.44176000000002,93.72946495755174L131.6608,97.1259017325063L131.85616000000002,97.46572745528205L131.96272,98.53866543384224L131.97456,98.64291030970314L132.11072,99.13216227774083L132.11664000000002,94.55948789805724L132.12256,97.90441893936197L132.14032,95.33266251524886L132.25279999999998,98.77691788353219L132.46,96.16459552042964L132.64352,99.09026492724122L132.8744,101.72916650096822L132.9336,95.6057009656444L133.46048,93.30891152244763L133.54336,97.55095991836495L133.71504,98.50892088950911L133.7624,98.1849272246302L133.93408,99.68959532284914L134.52016,102.09795786204444L135.88768,98.55323868020545L136.03567999999999,101.15547902134891L136.05344,102.28285836956933L136.10672,104.31004896034023L136.27248,104.48186300623614L136.47968,101.66478228161984L136.55072,105.74707050609076L136.9296,107.71568682947913L137.7288,102.69438393674454L138.04848,106.9859313102957L138.83584,110.48707732221528L138.84176,110.12766314476688L139.67056,110.30773391218294L140.38688,110.42086522117044L140.42832,110.26078320808746L141.16832,108.45323616359488L141.45248,112.39302353782436L141.83728,113.21451274719955L141.94976,110.49894008206267L142.11552,109.89784001410169L142.24576,110.74896910448966L142.37008,113.3054240279336L142.77264,111.57586255071197L143.0864,114.1820618639911L143.42976,113.77792862636991L143.69024,107.54737533479819L143.86192,109.22703741401367L144.95712,110.47085500405193L145.04592,110.20583216204487L145.06368,110.72110409119936L145.19392,113.5829604249616L145.22944,114.18588611571508L145.5136,114.41506363404899L145.87472,114.44561944873993L145.95759999999999,114.94945700317409L146.02272,114.96987919949696L146.34832,115.00533789296207L146.41344,111.78309836989861L146.44896,112.77966957559585L146.79824,112.7952239509646L146.95808,117.34251085364829L147.09423999999999,119.89655032356322L147.50864,120.07886174744874L147.63888,116.8698836530835L147.83424,115.20087064696892L147.93488,116.68690634339511L147.97632,117.69835052829659L148.21312,119.40805897810398L148.31968,120.14404413387845L148.3552,121.14357805223665L148.37296,120.40446441421417L148.82288,123.99677188227281L148.8288,123.17318724477778L149.10703999999998,122.64423028492956L149.29056,121.43087737214317L149.4504,121.93816568855826L149.46815999999998,119.18654178357087L149.49776,115.70827660890663L149.82927999999998,118.67636235647083L149.91808,114.7276475488041L149.9832,119.32677248670026L150.27328,115.28197975687205L150.61072000000001,119.20560986306148L150.87712,120.07044907315102L151.11984,124.03529524480749L151.1968,123.13093747369385L151.20272000000003,120.30818481647135L151.33296,122.9142641270349L151.36256,121.13059332899059L151.42768,122.65828763801935L152.0848,122.75002696132113L152.20912,125.43734536312624L152.61759999999998,123.7737533779167L152.63536,117.24925202251147L152.64128,121.6274089515779L152.92544,122.99856843223282L153.06752,125.87390436797074L153.41088,128.84228729580414L153.84896,127.2496254936663L154.08576,123.98447110164344L154.32256,120.65930084200278L154.39952,125.0731658315024L154.7784,125.08057613888218L155.1632,127.19945209388567L155.29936,126.2049669123237L155.79664,127.90800152665312L155.8144,127.1234395014004L155.844,130.6118830333869L156.24063999999998,127.81619346020275L156.3472,128.7480924625522L156.79119999999998,127.00825777380953L157.02208,129.9551166723593L157.95744,127.45780085109217L158.20608,129.7164754147284L158.212,132.7749241714648L158.59680000000003,129.37364938474195L158.63232,129.08419909977147L158.78624000000002,124.9959576541378L158.91056,124.72217259756555L158.94608,125.02081702653994L159.65055999999998,126.2927707212103L159.84,126.73570290666416L159.88144,127.23344618688316L161.14832,128.57073217729237L161.29631999999998,130.34405814733478L161.37328,130.45005724439181L161.53312,130.56628988218466L161.57456,132.6067973443465L161.66928,134.39478233269432L161.71664,133.32245957143056L161.79952,132.79295483535032L161.96528,131.79915847894188L162.37376,132.04219173500917L162.39151999999999,133.12205493714401L162.64015999999998,134.4867422676046L162.84735999999998,132.96309996753024L163.0664,133.05948106579106L163.60512,132.97235487380894L164.33328,131.94403310505115L164.37472000000002,134.83404792877573L164.74768,135.5999675179805L164.81871999999998,129.12069133299968L165.35152,129.07397555139687L165.36927999999997,130.33233362134513L166.23952,133.19430905664362L166.26319999999998,131.77503212740658L166.51775999999998,132.5267871088821L166.58288,132.00165069635275L166.61248,134.05572868507443L166.64208000000002,128.64024275812312L166.84336000000002,132.853981466065L166.90256,134.18771746282653L167.05648,134.83457215012703L167.32288,133.52800409160346L167.45904000000002,134.25954611663064L167.76096,133.97215137221838L167.90303999999998,130.84790982408379L168.01552,134.6164905140317L168.0984,137.3905705292069L168.29376,137.00236131556426L168.96272,134.81668541184288L169.25279999999998,136.83362352593807L169.73232000000002,137.24903198460512L169.79744000000002,137.39977068332695L169.91584,136.66383148806014L170.27104,137.2483518535498L170.348,137.6348161573637L170.56704,137.92008426771466L170.68544,137.5745082132506L171.31887999999998,137.7278408507002L172.1536,138.40750152995474L172.38448,138.9700325066332L172.55616,138.3803913699942L172.78704000000002,133.93489614172918L173.0712,135.11900197624982L173.35536,137.96556246309703L173.3672,136.7922966402524L173.41456000000002,137.08234789170015L173.59216,135.6895574488737L173.72832,136.8097655205361L174.14864,138.0001399812161L174.98336,139.72248856407757L175.36223999999999,140.86212601240555L175.63456,139.06168464937787L175.81216,140.7519390192766L175.94240000000002,140.29255264377758L175.98976,141.35772395424414L176.712,142.22464324807544L176.8896,140.79851066270058L177.01984000000002,138.96506252605866L177.2152,131.90456945397614L177.65328000000002,132.54085268728164L177.88416,133.2771454277105L178.39328,134.82083879445793L178.82544000000001,135.76397834805198L178.97343999999998,137.98164422199986L179.0504,133.87575027543488L179.10368,136.6807612305109L179.57136,139.1072027413515L179.92064000000002,138.77766833806177L180.59552,139.9676227483069L180.68431999999999,140.85955042849804L181.152,141.47390153467484L181.66704,142.27607766134105L182.19392,141.9946412365192L182.41296,141.5933828160828L182.62016,138.25080105364978L182.81552,137.75806028730733L183.05823999999998,140.19522274320892L183.69760000000002,140.6090655824013L183.79232000000002,141.6218392193596L183.91664,140.75642604074562L183.96992,140.34921249149585L184.06464,142.22853837780497L184.4376,142.7419393151012L184.44352,142.63210487366428L184.5264,141.48293160862815L185.25456,141.004005164043L185.31968,142.30148469416451L185.91168,140.9400950981997L186.30831999999998,142.45866653140652L187.49232,141.8375685078213L187.9896,141.6819388042608L188.00144,143.7762382013034L188.24416,142.45954764579324L188.25008,139.39765432294956L188.42176,141.43357625626908L188.4336,142.53549054941234L189.01968000000002,135.9541400916883L189.90768,138.20089257179086L190.28656,136.04111852630342L190.32208,137.88573332989168L190.3576,138.70290985589264L190.38128,140.69599442877063L190.3872,141.5849704416455L190.83120000000002,137.97749511034456L191.06799999999998,139.49563258269131L191.3936,140.44566270272486L192.104,140.1060976671146L192.15135999999998,141.56910979206495L192.43552,143.46112005385837L192.8144,141.07376131233752L192.83216000000002,142.05353807830454L193.01568,142.32634254747813L193.07487999999998,140.87094195689605L193.11632,141.23614494539143L193.22288,142.19542730969295L193.56032,142.75560381021694L193.82080000000002,143.4034191304176L194.32992,143.3850353333921L194.86864,143.74168897974582L194.88047999999998,144.47772195853977L195.06992000000002,143.6337379046703L195.17648,143.31172439559182L196.85183999999998,141.51693277222245L197.00576,142.00909098119268L197.26624,143.72218711189203L197.59184000000002,145.44767113202542L197.89376000000001,143.52390127252443L197.97072,143.60133120473103L198.51536000000002,145.62391561236836L198.68704,145.8434569264132L198.91791999999998,146.33150626568067L199.30272000000002,145.62071374531098L200.57552,145.24218620146618L201.0432,143.71865108779255L201.19711999999998,144.02342571453295L201.32736,142.8282334186795L201.43984,144.0887067318192L201.55823999999998,144.56505312391175L201.58784,144.09653960122827L201.68256,145.1305183027105L201.7536,145.51181451933417L201.84832,146.36123325302302L202.00815999999998,145.82605693662623L202.41072,140.77382338664276L202.77776,138.973693191735L202.82512000000003,138.66739920361522L204.00912000000002,137.04909281747416L204.05056,140.50758713838252L204.10384000000002,142.76944239749588L204.39984,145.1795727983625L204.4176,141.8862991676039L204.54192,141.33190331927776L204.61296,142.97601751926643L204.72544000000002,139.29947585528953L204.83792,142.8850730895948L205.64304,143.50817127863277L206.12256,144.9448695941484L206.12848,144.46312654067043L206.32976,144.67435478928397L206.44224,145.16423049891287L206.71456,145.46434628825628L207.14079999999998,144.2923409586159L207.1704,145.42482811613263L207.32432,145.5310181469589L207.59663999999998,144.88792496004254L207.68544,143.4294933091978L208.17088,144.70455723141575L208.42544,145.76152300186587L208.57935999999998,146.20024909054484L208.65632,145.63156268946148L208.82208,146.26429572474052L209.07664,143.71136491890735L209.71008,145.12435078393344L209.85808000000003,144.91620104441267L209.89952,144.2106963107076L209.9232,144.43496878002605L210.50928000000002,146.37280195520367L210.52704,145.44740565491676L210.76384000000002,145.33340857747967L211.32032,145.50511938791408L211.40319999999997,145.50223020589908L211.50976,145.66885449812747L211.75840000000002,146.01069036916456L212.34448,145.09191082726588L213.36864,145.1677583358659L213.6824,145.8970723756006L214.38688000000002,145.8509995081071L215.46432000000001,145.96736803215342L215.68336,145.02525709142577L215.80767999999998,145.95410371265982L216.02672,146.4478095663783L216.23984,147.13355727353874L216.7608,147.83224881108114L217.18112000000002,146.54510260670688L217.33504,147.3274373646867L217.57184,145.50348062996483L217.84416,144.6355410159692L218.22896,146.00535756793013L218.27040000000002,147.2019528746721L218.31776,147.06806477573878L218.60191999999998,147.67226197057718L218.6552,147.51896451817868L219.00448,145.52701408476452L219.08144000000001,145.33673768924166L219.93984,145.7195861837456L220.01088000000001,145.49956923399174L220.20624,146.5655273881649L220.45488,146.38161087157894L220.83968,146.45665122211187L221.27776,146.8798841067565L221.556,147.4176747352263L221.76912,147.5710600214099L221.9408,147.45617612184455L222.11248,147.30527910645296L222.18944,144.3517741372184L222.2072,143.96900602506244L222.59792000000002,144.79871591921633L222.61568,145.23569682503003L222.87024000000002,146.4345140651718L223.16032,147.00763958932757L223.49184000000002,146.9147731543754L224.27328,146.93278548406607L224.31472000000002,146.6483293265657L224.32064,145.0277115014858L224.36208,145.88483561124406L224.91263999999998,145.51710209675235L224.98368,145.5517508273975L225.06064,146.86958815767304L225.10208,144.59552020697157L225.77696,144.86417920444757L225.80064,145.76321708857296L225.96048,144.93104801793461L225.97232,146.20272622371786L226.36896,146.69178881167414L226.50512,147.89343611483534L226.91951999999998,146.32283022719147L226.97871999999998,146.8369873791653L227.07935999999998,146.47543328515331L227.1208,146.23269350105178L227.13856,145.47358356380653L227.28656,145.23524856446699L228.09168000000003,146.4827485501148L228.63632,139.26319532774818L228.67776,142.65206050253337L229.21056000000002,144.23066467867153L229.26384000000002,145.6591142769871L229.33488,145.69060795311108L229.44735999999997,146.98381369858038L229.548,145.9443196653932L229.63680000000002,146.85004856981496L229.86768,146.55634392180636L229.93872,147.1270808245787L230.08672,146.76716991791753L230.26432,146.35127104704026L230.30576,145.42784689827758L230.64912,145.93227290489673L230.92144,147.65206107192938L231.03392,147.15418658670012L231.07536000000002,143.94925736993287L231.34768000000003,146.20766974852324L231.65552,146.74076062592704L231.67328,147.61794591968294L231.88047999999998,148.33528672670346L232.63232,148.4587327818971L232.65008,149.0691998033266L232.95792,149.20904983319753L232.96383999999998,148.46842610514244L233.08816000000002,148.6290957775942L233.41376000000002,148.02345574845924L233.9288,148.20066498686901L233.93472,146.56091073269997L234.15968,145.81238677504206L234.24848,146.40034879950875L234.36688,146.24226588366676L234.42016,146.58251032645455L234.47343999999998,147.65655844525133L234.65104,147.78911078376288L234.94111999999998,147.28705592660404L235.26672,147.70074163104073L235.45615999999998,146.66098444463464L235.58640000000003,146.8846917200187L236.01855999999998,146.74848660119966L236.9184,146.61807571689113L237.20848,147.90848023464838L237.4216,148.54397873410585L237.78864000000002,147.97923698356485L238.24448,148.54987389576212L238.26224,148.20764205494586L238.71215999999998,148.71836552272345L238.83648000000002,146.38868363913625L238.88384,146.9761068462998L238.9608,146.80163294975648L238.97263999999998,148.29959214935184L239.00815999999998,148.38106096511768L239.38704,148.89085391265235L239.58832,148.61054615174314L239.60016,147.25183311300228L239.60608,145.691770824307L240.11520000000002,145.04584874395692L240.13296,146.04864888930155L240.2928,146.92141484280063L241.30512,147.7439827306646L241.34655999999998,146.5380585938838L241.73728,147.2836033341045L241.76688,146.5822421559413L242.38256,147.14996917140797L242.4832,146.2783055728216L242.87984,145.39882018188536L242.99824,146.2946452049276L243.21728,147.16558004042008L243.24096,148.20014620462027L243.63168000000002,148.97561316341208L243.93952,148.60771133227507L244.02832,148.79799896313764L244.11712,149.36293049421982L244.21184,147.91082432661034L244.2888,147.76382844788645L244.49599999999998,147.5638681691788L244.60848000000001,147.61035657443682L244.64992,146.64697002613724L246.02928,147.82842728376232L246.38448,147.94971410163149L246.56208,147.9195049110725L246.67455999999999,148.17891025763797L247.20144,148.15593497620583L247.43232,148.15851268105973L247.456,147.47517724593442L247.50928000000002,147.21948051044654L247.5448,144.6463706309953L247.6928,145.82003564263866L248.03024,146.4406529530084L248.2848,146.55845218219864L248.89456,147.57246122086482L249.25568,148.41124290090133L249.58128000000002,148.44674525310725L249.77664000000001,148.68355482608158L249.99568,148.01793699271857L250.42192,147.80468696704602L250.45744,147.86270248966736L250.51072,148.2204584682623L250.83040000000003,148.96069976251493L251.27439999999999,148.48319757849015L251.47568,148.53379782559495L251.90192,149.48414040187876L252.42288,149.5991651384161L252.9912,148.9321328793177L253.10368,148.06490698885838L253.35824000000002,146.94785067961433L253.76672,147.0216521009686L254.15152,146.94410803227916L255.03952,147.51883347351264L255.63744,148.28235219562728L255.96303999999998,149.38208178666042L256.05184,149.08409092418438L256.46031999999997,148.83497179238583L256.6616,148.6930289044627L257.09968,149.05825385233982L257.1944,148.00649133724042L257.25952,147.67363695741932L257.4608,147.7674158414014L257.9344,149.15551009177017L258.29552,149.11183818021723L258.30144,149.41958576742397L258.39024,148.18713523595352L258.64480000000003,148.3210425554642L258.7632,147.829776329533L259.01776,148.18447735207755L259.04736,147.77506622518254L259.47360000000003,147.744445562102L260.30832,147.73283786228222L260.44448,147.57287063589249L260.4504,147.63473985560404L260.46816,148.5438482216391L260.60432,147.83917384586425L261.17264,148.41933236862238L261.29104,149.32456208938038L261.52191999999997,149.57494141728552L261.58704,149.73421596066015L263.01376,149.7103495327517L263.26832,149.628978720976L263.51104000000004,150.6530024002034L263.92544,149.3740513782392L264.0912,149.7472309678542L264.39312,149.486908282755L264.96736,148.50622053499112L265.01472,147.3873737017286L265.15088000000003,148.8907844585826L265.18048,149.36123601108028L265.28112,149.00082314251733L265.58304,149.0256381658381L265.808,148.49997565513843L266.93872,149.19826715806718L267.01568,149.43839110174204L267.44192,148.60550981571L268.06352,147.9679766100562L268.57856000000004,149.263108163524L268.64959999999996,147.9553989718381L268.83904,149.3890783107957L269.0048,148.91801658901986L269.51984,149.78785049961724L269.57904,149.80545123710928L269.61456,147.75259535223395L269.63824,147.87768238808803L269.82176,148.25032544548964L269.8336,148.9760406306988L269.91648,149.3501722695063L269.952,149.22152915884834L270.38416,149.5688950522794L271.50896,149.8761918302144L271.8464,149.25492953858037L271.88784,149.68680484322132L272.36736,149.64271820985397L272.46208,148.57157023259538L272.52128,148.80304160354987L272.62192,149.31283273415175L273.05408,149.04932458072747L273.208,149.32708814795058L273.21392,148.92464920911337L273.62832000000003,149.75180537256816L274.03088,150.2532973162194L274.1256,150.094044010154L274.51632,149.4047553859025L274.80048,148.63022172515144L274.8952,149.61502127420965L275.06688,148.7547105955737L275.21488,149.750852217071L275.32736,148.48928804054094L275.36288,149.18911117559546L276.17984,148.5332162514083L276.2272,149.1553487699083L276.60608,149.5247185156588L276.76592,150.03933322252564L277.56512,145.23301377984922L277.60656,146.65633731937234L277.71312,147.71581845859845L278.32288,147.22946107150545L278.46496,147.82352218220822L278.50048000000004,147.29394891706553L278.52416,147.69174506507122L278.60704,147.26492896356598L278.96816,148.33853486650898L278.97408,148.7452561400092L279.37664,149.12819556048052L279.53648,149.84056307796294L279.75552,150.1565987754616L279.92719999999997,150.1316525167808L280.00416,149.45837863974614L280.1936,148.84191952164676L280.30016,150.22402162163877L280.35936,151.23558597649787L280.48368,146.72167081566047L280.63168,147.4215452554375L281.12896,148.78238207593859L281.54336,149.65921239220944L281.88672,150.29563325343835L282.12352,149.86069658020125L282.28335999999996,149.47446930644966L282.44912,149.5855337554498L282.47872,149.96272657426564L282.81615999999997,150.48622309831202L283.04112,149.8978675742989L283.23648,149.82818811509614L283.33711999999997,149.80473768735095L283.568,149.61983570007317L284.40864,149.66153049265708" style="fill: none;" fill="none"></path></g></g></g></g><g opacity="0.2"><g><g><g><path stroke="rgb(255, 112, 67)" stroke-width="2px" d="M30.9616,-15.987208048502623L30.9912,10.121150122748503L31.11552,-5.819111506144225L31.222080000000002,-7.65279452006024L31.42928,12.437726762559691L31.441119999999998,-22.87063958909775L31.48848,-7.660263697306334L32.09824,9.203327814737946L32.412,4.143809000651032L32.77904,4.346184094746917L33.0336,22.785743713378906L33.07504,22.411162588331422L33.3592,-13.883936776055208L33.43616,16.808176252577027L33.57824,2.720346026950409L33.8328,5.280217912462035L33.880160000000004,24.055202060275604L34.17024,10.018335766262481L34.25312,27.810085720486114L34.35376,17.814195209079315L34.38928,6.4020279778374345L34.55504,25.779167387220582L35.354240000000004,19.39522764417859L35.6088,32.87737549675833L35.91664,8.640998734368196L36.1416,31.811301337348112L36.591519999999996,18.165604909261077L37.071039999999996,20.497327380710175L37.396640000000005,27.95224528842502L37.4144,30.17790921529135L37.497279999999996,18.842074712117522L37.52096,30.782912572224944L37.80512,31.579888873630097L37.846560000000004,35.2996711730957L38.10704,16.37945302327475L38.28464,20.761785295274535L38.622080000000004,19.6373911963569L38.793760000000006,28.968374040391723L38.88848,19.69394758012561L38.983200000000004,16.98177803887259L39.61664,31.626486354404022L39.77648,10.73452801174588L39.871199999999995,32.69413545396594L39.88896,11.76055908203125L40.149440000000006,28.75546476576062L40.5224,36.61815071105957L40.65264,25.906266000535766L40.71776,22.099022653367797L40.95456,36.546910603841155L41.0552,17.78522385491263L41.13216,30.547954135470917L41.659040000000005,19.851960288153776L42.01424,19.654064814249665L42.55296,25.06367301940918L42.623999999999995,29.4924801720513L42.81344,29.60826185014514L42.84896,35.658965004814974L42.967360000000006,46.88371435801187L42.99696,29.058353106180817L43.263360000000006,23.113774511549195L43.3344,34.42336315578885L43.748799999999996,30.51794539557565L44.02704000000001,34.444940778944215L44.12768,47.09201198154025L44.13952,48.2332117292616L44.16912,32.02217356363931L44.317119999999996,41.42888556586374L44.323040000000006,29.760861290825716L44.39408,43.42641894022623L44.42368,40.48145061069064L44.59536,35.000687175326874L44.684160000000006,25.273611598544647L44.71968,37.86707825130887L45.50112,25.56737094455295L45.82672,38.6936577690972L47.17056,32.934884389241546L47.59088,33.885007116529664L47.60864,24.314208984375L47.952,37.15681796603732L48.31904,22.639245986938477L48.72752,46.65534803602429L48.810399999999994,44.48858875698514L48.82224,26.784695943196624L48.82816,44.78877046373157L49.171519999999994,42.06909402211508L50.207519999999995,42.84221988254123L51.024480000000004,38.214913686116546L51.036319999999996,42.92710632748074L51.332319999999996,38.02626980675589L51.75264,45.0601128472222L52.060480000000005,35.65987979041208L52.1848,38.682378556993285L52.226240000000004,26.660700056287965L52.85968,37.348696602715364L53.025439999999996,47.20408736334909L53.1912,54.31389533148872L53.49904,35.74423811170789L53.866080000000004,47.29245376586914L54.446239999999996,47.08906014760336L54.62976,32.76684676276315L54.65936,35.42127164204916L55.16256,35.39096111721463L55.174400000000006,48.93728542327881L55.65392,46.094971126980255L56.19856,56.075574345058854L56.2992,52.20426771375868L56.42352,41.47127691904703L57.2168,30.58301777309842L57.24048,45.981235928005646L57.287839999999996,39.179493798149934L57.950880000000005,51.03309694925943L58.03376,55.586352666219085L58.25872,46.53768020206027L58.32976000000001,54.97756756676567L58.578399999999995,47.55176247490775L59.034240000000004,43.47985373602975L59.50192,41.08088037702771L59.51376,44.50690333048502L59.833439999999996,58.700546900431306L59.999199999999995,51.13577927483452L60.6208,47.53459845648874L61.153600000000004,52.170382923550065L61.24832,37.96034865909152L61.331199999999995,47.27355448404947L61.692319999999995,53.8412529627482L62.26656,51.01147217220729L62.455999999999996,46.70126650068494L63.2256,43.97927008734811L63.48608,48.21650981903076L63.98928,54.16796345180934L64.08991999999999,28.311048719618043L64.10768,54.9924210442437L64.32079999999999,50.909619755215104L64.36224,40.02915043301053L64.57536,48.27299075656467L64.69968,54.717551549275726L65.06671999999999,58.415831671820754L65.18512,43.755307939317504L65.84224,54.33436955346001L65.90144000000001,48.788910971747526L66.30992,48.44804488288034L66.38688,59.30338117811415L66.4224,53.142045550876205L66.49936,48.8497960832384L66.8368,32.46984322865805L66.97296,56.95498508877223L67.00256,54.72077687581381L67.35184,44.27678288353812L68.20432000000001,59.64930216471353L68.524,56.15588686201308L68.69568,42.045205858018676L69.01536,56.25592856936986L69.24624,53.40124109056261L69.26400000000001,51.82068962521022L69.33504,43.184462865193694L69.51856000000001,51.48910342322456L70.13424,50.75920825534398L70.1816,58.65416632758247L70.2704,43.198750495910645L70.84464,44.008901596069336L70.99856,48.69594234890408L71.1288,48.01997237735324L71.67344,50.276880476209854L71.7208,46.49349700080026L71.96352,55.41259998745387L72.50816,51.865004857381194L72.88704,56.40369945102269L73.1712,43.88030348883737L73.30736,56.64526886410182L73.41984000000001,47.783882247077116L73.70992,49.40368461608887L73.76912,57.499282519022614L73.78688,59.93732759687636L73.87568,53.37167559729683L74.07104000000001,51.50379657745361L75.11296,62.57026916080052L75.14847999999999,59.20703633626303L75.54512,55.70600096384683L75.71088,53.54448519812691L75.77008,53.72273635864258L75.97728000000001,47.038199954562714L76.37392000000001,51.83537334865993L76.56336,63.217437532213L76.91264000000001,53.126994027031785L77.11984,49.87884500291614L77.35664,55.30840873718262L78.03152,48.053659121195466L78.23872,55.73722627427843L78.27424,55.72977595859105L78.68272,58.118054813808854L78.9432,44.72271728515625L79.11488,55.01093366410997L79.14448,51.550875027974456L79.19776,69.72696696387398L79.73056,57.91183196173775L79.74831999999999,59.1365884145101L79.91408,59.777862548828125L79.97327999999999,65.32096343570286L80.31664,52.36202579074437L80.52384,54.247700691223145L80.72512,64.32425265842015L81.08032,51.985690540737565L81.81439999999999,50.664674123128265L82.16368,77.71271514892578L82.3176,52.01765145195854L82.33536000000001,60.6001133388943L82.45967999999999,45.96225176917184L82.50112,61.36623213026259L82.84448,63.33388879564073L82.88000000000001,60.23727353413901L83.21152,62.64597002665201L84.22384000000001,63.79910914103189L84.26527999999999,62.84455394744873L84.42511999999999,59.43577988942465L84.75663999999999,61.376511679755325L84.94608000000001,70.2407275305854L85.32496,60.669222089979385L85.46112,55.106043073866104L85.65648,63.60856967502171L86.12416,58.58284134334987L86.16560000000001,56.374982727898484L86.24256,56.44213930765787L86.59776,43.00393888685437L86.77535999999999,59.46151648627388L86.91152,59.684422387017136L87.01808000000001,57.02265093061659L87.87647999999999,58.48742071787515L88.25536,61.344597922431106L89.14928,66.0739640129937L89.3032,63.5692056020101L89.80048,67.31307411193848L90.43983999999999,77.26381005181206L90.48128,60.095170550876205L91.15024,62.11345163981119L91.16799999999999,53.93101512061226L91.29232,65.96305804782445L91.6416,59.502427207099075L91.7008,62.92058489057753L91.89616000000001,60.397634506225586L92.39936,76.9815656873915L92.58288,58.24098502265083L92.6776,63.14384916093614L92.77824,62.29767248365614L93.01504,65.91243362426758L93.28735999999999,64.5312582651774L93.29328000000001,60.719205220540374L93.42352,59.303362316555436L93.63072,63.520769119262695L93.78464,60.649247699313705L93.83792000000001,76.03654501173231L94.14576,66.59022373623317L94.16352,67.84691280788844L94.36479999999999,72.17433908250597L94.38848,80.99381531609428L94.52464,53.03693951500786L94.56016000000001,79.36381355921426L94.572,68.40357398986816L94.80879999999999,65.19671291775173L94.84432,69.10170629289415L94.95088,73.92580456203883L95.32976000000001,62.912097189161514L95.44224,70.48013729519313L95.49552,58.49866220686171L95.89808,70.33985445234511L95.90992,79.74192179573906L96.26512,66.89562066396078L97.2064,76.49229685465494L97.52015999999999,75.48747560713026L97.63856,69.25771967569986L97.82208,70.90745533837212L97.87536,68.4121182759603L97.976,59.06052917904323L98.07664000000001,70.28687233395046L98.56208,67.64535819159615L98.69824,65.98059929741753L98.78112,67.35720072852241L99.2192,74.53339195251465L99.89408,59.802250544230134L100.46239999999999,69.53099536895752L100.492,79.52205732133653L100.70512000000001,56.01464207967123L100.88864,75.49875481923422L101.46288,76.25590493943956L101.6168,76.1671707365248L101.64048000000001,73.8130218717787L101.7352,70.304290983412L101.98384,67.43451425764296L102.36272000000001,66.52502875857884L102.38048,62.999803437127L102.4752,69.90376578436958L103.04352,70.18742476569282L103.35728,71.2035912407769L103.91968,60.36971939934624L104.61823999999999,77.91709899902344L104.78399999999999,73.23444355858696L105.13328,74.28813510470921L105.41152,69.43853600819907L105.83776,71.40933312310112L105.95024,79.40192333857217L106.2048,75.62249607510036L106.66656,70.55768659379747L106.7672,80.44838147693211L106.92704,67.65495872497559L107.05135999999999,69.01669724782309L107.1224,84.29936006334093L107.2112,76.99860710567897L107.23488,68.98528332180446L107.33552,63.17918629116481L107.54864,59.38078901502821L107.78544000000001,67.73717625935873L107.9808,78.26803716023764L108.632,66.14924992455376L108.94575999999999,73.70577504899767L108.96944,83.15372313393486L109.08784,76.57868279351128L109.37792,51.936046918233245L109.5496,81.24145815107558L109.79823999999999,73.41105376349556L110.10016,75.16594261593288L110.23631999999999,85.54899491204155L110.5856,64.04446029663086L110.60336,80.33632024129233L110.98816000000001,83.88794231414795L111.15984,69.69439305199516L111.36112,75.61452706654867L111.56832,71.30908393859863L111.7992,72.42119916280112L112.34384,76.62325265672472L112.47408,82.04959106445312L112.95952,80.68128871917725L113.79424,82.4368282953898L114.18496,80.78911553488838L114.22640000000001,75.2037600411309L114.27968,73.7065200805664L114.38032,76.26731618245444L114.45136,82.15090592702231L114.48688,80.66613345676L114.83616,84.62953164842394L115.13216,91.75278319252863L115.41040000000001,67.25067064497206L115.62352000000001,75.49618964725072L115.7656,86.7845401763916L115.78336,79.54211658901637L116.22736,71.75138749016655L116.26288000000001,77.22109805213081L116.44048000000001,78.47136476304796L116.49376000000001,81.94131628672281L116.55296,86.65471606784398L117.0976,71.83054945203993L117.10352,75.3415248658922L117.15088,85.6858638127645L117.17456,81.65511099497476L117.2752,95.48236878712972L117.65408,85.20236661699083L117.76656,51.553770277235245L117.96784,78.9535322189331L118.56576000000001,70.26136207580566L118.93872,90.28329330020482L119.21104,71.6874090830485L119.47152,92.18634912702773L119.584,89.21957683563232L119.98064,88.44194306267632L120.324,77.30678611331517L120.46016,88.92501587337917L121.20608,79.00172350141737L121.21791999999999,99.79098065694173L121.40736000000001,75.33014191521538L121.59088,84.73427931467691L121.94015999999999,85.94487073686388L122.78672,82.78899717330933L122.9288,92.1280763414171L122.98208000000001,83.82225693596733L123.28992,105.92816877365112L123.30768,90.41215546925862L124.20159999999998,72.84174590640599L124.28447999999999,96.79610464307997L124.88832000000001,87.98762941360474L125.01264,88.9301839404636L125.8,91.43219799465602L126.22623999999999,90.71685923470392L126.35647999999999,101.74283133612738L126.45712,86.18970319959853L126.72944000000001,86.21294535530937L126.93072,81.13859664069282L127.31552,90.59800783793132L127.78912,89.44385019938152L127.81872,79.9167637295193L128.23904000000002,92.41858206854926L128.45216,96.76445023218791L128.74224,93.7934152285258L129.10928,92.30111699634129L129.1152,95.77410994635687L129.31647999999998,100.4217489030626L129.39936,86.77735392252603L129.648,95.80463737911647L130.63664,96.37197891871135L130.82016000000002,90.42898469501073L131.02143999999998,98.32326846652562L131.44176000000002,91.54965835147435L131.6608,102.22055689493816L131.85616000000002,97.97546603944566L131.96272,100.14807240168254L131.97456,98.79927762349446L132.11072,99.86604022979736L132.11664000000002,87.70047632853189L132.12256,102.92181550131903L132.14032,91.47502787907918L132.25279999999998,103.94330093595717L132.46,92.24611197577582L132.64352,103.47876903745863L132.8744,105.6875188615587L132.9336,86.42050266265869L133.46048,89.86372735765245L133.54336,103.91403251224095L133.71504,99.94586234622533L133.7624,97.69893672731187L133.93408,101.94659747017755L134.52016,105.7105016708374L135.88768,93.23615990744696L136.03567999999999,105.0588395330641L136.05344,103.97392739189996L136.10672,107.35083484649658L136.27248,104.73958407508002L136.47968,97.43916119469537L136.55072,111.87050284279718L136.9296,110.66861131456163L137.7288,95.16242959764269L138.04848,113.42325237062242L138.83584,115.73879634009467L138.84176,109.5885418785943L139.67056,110.57784006330702L140.38688,110.59056218465169L140.42832,110.020660188463L141.16832,105.74191559685602L141.45248,118.30270459916858L141.83728,114.44674656126233L141.94976,106.42558108435736L142.11552,108.99618991216023L142.24576,112.02566274007161L142.37008,117.14010641309949L142.77264,108.98152033487956L143.0864,118.09136083390979L143.42976,113.17172876993816L143.69024,98.2015453974406L143.86192,111.74653053283691L144.95712,112.3365813891093L145.04592,109.80829789903429L145.06368,111.49401198493109L145.19392,117.87574492560492L145.22944,115.09027465184529L145.5136,114.75882991154988L145.87472,114.49145317077637L145.95759999999999,115.70521333482532L146.02272,115.00051249398126L146.34832,115.05852593315973L146.41344,106.9497390853034L146.44896,114.27452638414172L146.79824,112.81855551401775L146.95808,124.16344120767383L147.09423999999999,123.72760952843561L147.50864,120.35232888327704L147.63888,112.05641651153564L147.83424,112.69735113779704L147.93488,118.9159598880344L147.97632,119.2155168056488L148.21312,121.97262165281506L148.31968,121.24802186754016L148.3552,122.64287892977397L148.37296,119.29579395718045L148.82288,129.38523308436078L148.8288,121.93781028853522L149.10703999999998,121.8507948451572L149.29056,119.61084800296359L149.4504,122.69909816318088L149.46815999999998,115.05910592608981L149.49776,110.49087884691026L149.82927999999998,123.12849097781711L149.91808,108.80457533730402L149.9832,126.22545989354451L150.27328,109.21479066212972L150.61072000000001,125.09105502234564L150.87712,121.36770788828532L151.11984,129.9825645022922L151.1968,121.77440081702338L151.20272000000003,116.07405583063762L151.33296,126.82338309288025L151.36256,118.4550871319241L151.42768,124.9498291015625L152.0848,122.8876359462738L152.20912,129.46832296583386L152.61759999999998,121.27836540010242L152.63536,107.46249998940363L152.64128,128.19464434517755L152.92544,125.05530765321521L153.06752,130.18690827157764L153.41088,133.29486168755426L153.84896,124.86063279045953L154.08576,119.08673951360913L154.32256,115.67154545254178L154.39952,131.69396331575183L154.7784,125.09169159995184L155.1632,130.37776602639093L155.29936,124.71323913998074L155.79664,130.46255344814725L155.8144,125.94659646352132L155.844,135.84454833136664L156.24063999999998,123.62265910042657L156.3472,130.14594096607632L156.79119999999998,124.39850574069553L157.02208,134.375405020184L157.95744,123.71182711919148L158.20608,133.10448726018268L158.212,137.36259730656943L158.59680000000003,124.27173720465765L158.63232,128.6500236723158L158.78624000000002,118.86359548568726L158.91056,124.31149501270718L158.94608,125.46878367000156L159.65055999999998,128.20070126321582L159.84,127.40010118484497L159.88144,127.98006110721164L161.14832,130.57666116290622L161.29631999999998,133.00404710239835L161.37328,130.60905588997736L161.53312,130.74063883887396L161.57456,135.66755853758917L161.66928,137.07675981521606L161.71664,131.7139754295349L161.79952,131.99869773122998L161.96528,130.30846394432916L162.37376,132.4067416191101L162.39151999999999,134.74184974034628L162.64015999999998,136.5337732632955L162.84735999999998,130.67763651741876L163.0664,133.20405271318225L163.60512,132.84166558583576L164.33328,130.4015504519145L164.37472000000002,139.16907016436258L164.74768,136.74884690178766L164.81871999999998,119.40177705552844L165.35152,129.00390187899274L165.36927999999997,132.21987072626752L166.23952,137.48727220959134L166.26319999999998,129.64611673355103L166.51775999999998,133.65441958109537L166.58288,131.21394607755872L166.61248,137.13684566815695L166.64208000000002,120.51701386769612L166.84336000000002,139.17458952797784L166.90256,136.1883214579688L167.05648,135.80485418107776L167.32288,131.56815200381808L167.45904000000002,135.35685915417142L167.76096,133.54105925559998L167.90303999999998,126.16154750188191L168.01552,140.26936154895358L168.0984,141.55169055196973L168.29376,136.42004749510022L168.96272,131.53817155626086L169.25279999999998,139.8590306970808L169.73232000000002,137.8721446726057L169.79744000000002,137.6258787314097L169.91584,135.5599226951599L170.27104,138.12513240178427L170.348,138.2145126130846L170.56704,138.3479864332411L170.68544,137.0561441315545L171.31887999999998,137.9578398068746L172.1536,139.4269925488366L172.38448,139.81382897165088L172.55616,137.49592966503567L172.78704000000002,127.26665329933167L173.0712,136.89516072803073L173.35536,142.23540319336786L173.3672,135.0323979059855L173.41456000000002,137.51742476887173L173.59216,133.60037178463406L173.72832,138.49007762802972L174.14864,139.78570167223612L174.98336,142.30601143836975L175.36223999999999,142.57158218489752L175.63456,136.36102260483636L175.81216,143.28732057412466L175.94240000000002,139.6034730805291L175.98976,142.9554809199439L176.712,143.52502218882242L176.8896,138.6593117846383L177.01984000000002,136.2148903210958L177.2152,121.31382984585233L177.65328000000002,133.49527753723993L177.88416,134.38158453835382L178.39328,137.13637884457907L178.82544000000001,137.17868767844305L178.97343999999998,141.3081430329217L179.0504,127.71690935558743L179.10368,140.88827766312494L179.57136,142.74686500761243L179.92064000000002,138.28336673312717L180.59552,141.7525543636746L180.68431999999999,142.19744194878473L181.152,142.39542819394006L181.66704,143.4793418513404L182.19392,141.5724865992864L182.41296,140.9914951854282L182.62016,133.23692841000027L182.81552,137.01894913779364L183.05823999999998,143.85096642706128L183.69760000000002,141.2298298411899L183.79232000000002,143.14099967479706L183.91664,139.45830627282461L183.96992,139.73839216762119L184.06464,145.04752720726862L184.4376,143.5120407210456L184.44352,142.46735321150885L184.5264,139.75917171107398L185.25456,140.28561549716525L185.31968,144.24770398934683L185.91168,138.89801070425244L186.30831999999998,144.73652368121677L187.49232,140.90592147244348L187.9896,141.44849424892L188.00144,146.91768729686737L188.24416,140.48451181252798L188.25008,134.80481433868408L188.42176,144.4874591562483L188.4336,144.18836198912726L189.01968000000002,126.0821144051022L189.90768,141.5710212919447L190.28656,132.80145745807224L190.32208,140.65265553527408L190.3576,139.92867464489407L190.38128,143.68562128808765L190.3872,142.91843446095785L190.83120000000002,132.56628211339313L191.06799999999998,141.77283879121146L191.3936,141.8707078827752L192.104,139.59675011369916L192.15135999999998,143.76362797949048L192.43552,146.29913544654846L192.8144,137.49272320005628L192.83216000000002,143.52320322725507L193.01568,142.7355492512385L193.07487999999998,138.6878410710229L193.11632,141.7839494281345L193.22288,143.63435085614523L193.56032,143.59586856100293L193.82080000000002,144.37514211071863L194.32992,143.35745963785382L194.86864,144.2766694492764L194.88047999999998,145.58177142673068L195.06992000000002,142.3677618238661L195.17648,142.82870413197412L196.85183999999998,138.82474533716837L197.00576,142.74732829464807L197.26624,146.291831307941L197.59184000000002,148.03589716222552L197.89376000000001,140.63824648327298L197.97072,143.7174761030409L198.51536000000002,148.6577922238244L198.68704,146.17276889748044L198.91791999999998,147.0635802745819L199.30272000000002,144.55452496475644L200.57552,144.67439488569894L201.0432,141.4333484172821L201.19711999999998,144.48058765464359L201.32736,141.0354449748993L201.43984,145.97941670152875L201.55823999999998,145.27957271205054L201.58784,143.3937693172031L201.68256,146.68148635493384L201.7536,146.08375884426965L201.84832,147.6353613535563L202.00815999999998,145.02329246203104L202.41072,133.19547306166754L202.77776,136.27349789937338L202.82512000000003,138.20795822143555L204.00912000000002,134.6216332382626L204.05056,145.69532861974506L204.10384000000002,146.16222528616586L204.39984,148.79476839966244L204.4176,136.94638872146606L204.54192,140.50030954678854L204.61296,145.44218881924948L204.72544000000002,133.78466335932413L204.83792,148.26346894105276L205.64304,144.44281856218973L206.12256,147.0999170674218L206.12848,143.74051196045346L206.32976,144.99119716220432L206.44224,145.8990440633562L206.71456,145.9145199722714L207.14079999999998,142.5343329641554L207.1704,147.12355885240765L207.32432,145.6903031931983L207.59663999999998,143.923285179668L207.68544,141.24184583293066L208.17088,146.6171531147427L208.42544,147.34697165754108L208.57935999999998,146.8583382235633L208.65632,144.77853308783637L208.82208,147.2133952776591L209.07664,139.8819687101576L209.71008,147.2438295814726L209.85808000000003,144.6039764351315L209.89952,143.15243921014996L209.9232,144.7713774840037L210.50928000000002,149.2795517179701L210.52704,144.05931120448642L210.76384000000002,145.16241296132407L211.32032,145.76268560356564L211.40319999999997,145.4978964328766L211.50976,145.91879093647003L211.75840000000002,146.52344417572021L212.34448,143.71374151441785L213.36864,145.2815295987659L213.6824,146.9910434352027L214.38688000000002,145.7818902068668L215.46432000000001,146.1419208182229L215.68336,143.6120906803343L215.80767999999998,147.3473736445109L216.02672,147.18836834695605L216.23984,148.1621788342794L216.7608,148.88028611739477L217.18112000000002,144.61438330014548L217.33504,148.50093950165643L217.57184,142.76754552788205L217.84416,143.3336315949758L218.22896,148.0600823958715L218.27040000000002,148.99684583478503L218.31776,146.86723262733884L218.60191999999998,148.57855776283475L218.6552,147.28901833958096L219.00448,142.53908843464322L219.08144000000001,145.05132309595743L219.93984,146.2938589255015L220.01088000000001,145.16954380936093L220.20624,148.16446461942462L220.45488,146.10573609670004L220.83968,146.56921174791125L221.27776,147.51473343372345L221.556,148.22436067793103L221.76912,147.8011379506853L221.9408,147.28385027249655L222.11248,147.07893358336554L222.18944,139.92151668336658L222.2072,143.3948538568285L222.59792000000002,146.04328076044717L222.61568,145.89116818375058L222.87024000000002,148.23273992538452L223.16032,147.8673278755612L223.49184000000002,146.7754735019472L224.27328,146.95980397860208L224.31472000000002,146.22164509031506L224.32064,142.596784763866L224.36208,147.17052177588144L224.91263999999998,144.96550182501474L224.98368,145.60372392336527L225.06064,148.84634415308633L225.10208,141.1844182809194L225.77696,145.26716770066156L225.80064,147.11177391476102L225.96048,143.68279441197714L225.97232,148.1102435323927L226.36896,147.4253826936086L226.50512,149.69590706957712L226.91951999999998,143.96692139572568L226.97871999999998,147.60822310712604L227.07935999999998,145.93310214413538L227.1208,145.86858382489947L227.13856,144.33491865793863L227.28656,144.87774606545767L228.09168000000003,148.3539985285865L228.63632,128.43386549419827L228.67776,147.73535826471118L229.21056000000002,146.59857094287872L229.26384000000002,147.8017886744605L229.33488,145.73784846729703L229.44735999999997,148.92362231678433L229.548,144.38507861561246L229.63680000000002,148.20864192644754L229.86768,146.1157869497935L229.93872,147.9831861787372L230.08672,146.22730355792575L230.26432,145.72742274072436L230.30576,144.0427106751336L230.64912,146.68891191482544L230.92144,150.2317433224784L231.03392,146.4073748588562L231.07536000000002,139.141863544782L231.34768000000003,149.59528831640878L231.65552,147.54039694203271L231.67328,148.9337238603168L231.88047999999998,149.41129793723425L232.63232,148.6439018646876L232.65008,149.98490033547083L232.95792,149.41882487800387L232.96383999999998,147.35749051305982L233.08816000000002,148.87010028627185L233.41376000000002,147.11499570475684L233.9288,148.4664788444837L233.93472,144.10127935144635L234.15968,144.68960083855524L234.24848,147.28229183620877L234.36688,146.0051415099038L234.42016,147.0928769906362L234.47343999999998,149.26763062344656L234.65104,147.98793929153018L234.94111999999998,146.53397364086575L235.26672,148.32127018769583L235.45615999999998,145.1013486650255L235.58640000000003,147.2202526330948L236.01855999999998,146.5441789229711L236.9184,146.42245939042834L237.20848,149.8440870112843L237.4216,149.49722648329205L237.78864000000002,147.13212435775333L238.24448,149.405829264058L238.26224,147.69429429372153L238.71215999999998,149.48445072438983L238.83648000000002,142.89416081375546L238.88384,147.85724165704517L238.9608,146.53992210494147L238.97263999999998,150.54653094874487L239.00815999999998,148.50326418876648L239.38704,149.65554333395428L239.58832,148.19008451037936L239.60016,145.21376355489096L239.60608,143.35167739126416L240.11520000000002,144.07696562343173L240.13296,147.55284910731845L240.2928,148.23056377304925L241.30512,148.97783456246057L241.34655999999998,144.72917238871256L241.73728,148.40192044443555L241.76688,145.53020038869647L242.38256,148.00155969460806L242.4832,144.97081017494202L242.87984,144.07959209548102L242.99824,147.63838273949094L243.21728,148.47198229365878L243.24096,149.75199545092053L243.63168000000002,150.1388136015998L243.93952,148.05585858556958L244.02832,149.08343040943146L244.11712,150.2103277908431L244.21184,145.73266507519617L244.2888,147.5433346298006L244.49599999999998,147.26392775111728L244.60848000000001,147.68008918232388L244.64992,145.20189020368787L246.02928,149.60061317019992L246.38448,148.13164432843527L246.56208,147.87419112523398L246.67455999999999,148.56801827748617L247.20144,148.12147205405765L247.43232,148.16237923834058L247.456,146.45017409324646L247.50928000000002,146.8359354072147L247.5448,140.78670581181845L247.6928,147.5805331601037L248.03024,147.371578918563L248.2848,146.735151025984L248.89456,149.0934747788641L249.25568,149.66941542095608L249.58128000000002,148.49999878141614L249.77664000000001,149.03876918554306L249.99568,147.01951024267407L250.42192,147.48481192853717L250.45744,147.94972577359943L250.51072,148.7570924361547L250.83040000000003,150.07106170389386L251.27439999999999,147.76694430245294L251.47568,148.6096981962522L251.90192,150.90965426630444L252.42288,149.77170224322214L252.9912,147.9315844906701L253.10368,146.76406815316943L253.35824000000002,145.27226621574826L253.76672,147.132354233L254.15152,146.827791929245L255.03952,148.38092163536282L255.63744,149.42763027879926L255.96303999999998,151.03167617321014L256.05184,148.63710463047028L256.46031999999997,148.461293094688L256.6616,148.480114572578L257.09968,149.60609127415552L257.1944,146.4288475645913L257.25952,147.17435538768768L257.4608,147.9080841673745L257.9344,151.2376514673233L258.29552,149.04633031288782L258.30144,149.88120714823404L258.39024,146.33845943874783L258.64480000000003,148.52190353473028L258.7632,147.0928769906362L259.01776,148.71652888589435L259.04736,147.16094953484006L259.47360000000003,147.69851456748114L260.30832,147.71542631255255L260.44448,147.3329197963079L260.4504,147.72754368517133L260.46816,149.90751077069177L260.60432,146.78216228220197L261.17264,149.28957015275955L261.29104,150.6824066705174L261.52191999999997,149.95051040914325L261.58704,149.97312777572208L263.01376,149.67454989088907L263.26832,149.50692250331244L263.51104000000004,152.1890379190445L263.92544,147.45562484529285L264.0912,150.3070003522767L264.39312,149.09642425510617L264.96736,147.03518891334534L265.01472,145.70910345183478L265.15088000000003,151.1459005938636L265.18048,150.06691333982678L265.28112,148.46020383967294L265.58304,149.06286070081921L265.808,147.71148188908896L266.93872,150.24570441246033L267.01568,149.7985770172543L267.44192,147.35618788666196L268.06352,147.01167680157556L268.57856000000004,151.20580549372568L268.64959999999996,145.9938351843092L268.83904,151.5395973192321L269.0048,148.21142400635614L269.51984,151.09260136551327L269.57904,149.83185234334735L269.61456,144.673311524921L269.63824,148.0653129418691L269.82176,148.80929003159204L269.8336,150.06461340851254L269.91648,149.9113697277175L269.952,149.02856449286142L270.38416,150.08994389242596L271.50896,150.33713699711694L271.8464,148.32303610112933L271.88784,150.33461780018277L272.36736,149.57658825980292L272.46208,146.96484826670752L272.52128,149.15024865998163L272.62192,150.07751943005456L273.05408,148.65406235059103L273.208,149.74373349878522L273.21392,148.32099080085754L273.62832000000003,150.99253961775037L274.03088,151.00553523169623L274.1256,149.8551640510559L274.51632,148.3708224495252L274.80048,147.4684212340249L274.8952,151.09222059779697L275.06688,147.46424457761975L275.21488,151.245064649317L275.32736,146.59694177574582L275.36288,150.23884587817722L276.17984,147.54937386512756L276.2272,150.0885475476583L276.60608,150.07877313428455L276.76592,150.8112552828259L277.56512,138.02353461583456L277.60656,148.791322628657L277.71312,149.30504016743765L278.32288,146.4999249908659L278.46496,148.71461384826236L278.50048000000004,146.49958901935153L278.52416,148.2884392870797L278.60704,146.6247048113081L278.96816,149.94894372092352L278.97408,149.3553380502595L279.37664,149.70260469118753L279.53648,150.90911435418658L279.75552,150.63065232170953L279.92719999999997,150.09423312875958L280.00416,148.44846782419415L280.1936,147.91723084449768L280.30016,152.2971747716268L280.35936,152.75293250878653L280.48368,139.9507980744044L280.63168,148.47135691510306L281.12896,150.82363730669022L281.54336,150.97445786661572L281.88672,151.25026454528174L282.12352,149.20829157034555L282.28335999999996,148.89512839582233L282.44912,149.75213042894998L282.47872,150.52851580248938L282.81615999999997,151.27146788438162L283.04112,149.0153342882792L283.23648,149.723668926292L283.33711999999997,149.76956204573312L283.568,149.34248271915646L284.40864,149.72407268153296" style="fill: none;" fill="none"></path></g></g></g></g></g></g><g transform="translate(34, 178)" clip-path="url(#clip_1)"><clipPath id="clip_1"><rect width="296" height="22"></rect></clipPath><g><g><line x1="0" y1="0" x2="0" y2="5" style="visibility: inherit;" fill="rgb(0, 0, 0)" stroke="rgb(204, 204, 204)" stroke-width="1px"></line><line x1="29.6" y1="0" x2="29.6" y2="5" style="visibility: inherit;" fill="rgb(0, 0, 0)" stroke="rgb(204, 204, 204)" stroke-width="1px"></line><line x1="59.2" y1="0" x2="59.2" y2="5" style="visibility: inherit;" fill="rgb(0, 0, 0)" stroke="rgb(204, 204, 204)" stroke-width="1px"></line><line x1="88.8" y1="0" x2="88.8" y2="5" style="visibility: inherit;" fill="rgb(0, 0, 0)" stroke="rgb(204, 204, 204)" stroke-width="1px"></line><line x1="118.4" y1="0" x2="118.4" y2="5" style="visibility: inherit;" fill="rgb(0, 0, 0)" stroke="rgb(204, 204, 204)" stroke-width="1px"></line><line x1="148" y1="0" x2="148" y2="5" style="visibility: inherit;" fill="rgb(0, 0, 0)" stroke="rgb(204, 204, 204)" stroke-width="1px"></line><line x1="177.6" y1="0" x2="177.6" y2="5" style="visibility: inherit;" fill="rgb(0, 0, 0)" stroke="rgb(204, 204, 204)" stroke-width="1px"></line><line x1="207.2" y1="0" x2="207.2" y2="5" style="visibility: inherit;" fill="rgb(0, 0, 0)" stroke="rgb(204, 204, 204)" stroke-width="1px"></line><line x1="236.8" y1="0" x2="236.8" y2="5" style="visibility: inherit;" fill="rgb(0, 0, 0)" stroke="rgb(204, 204, 204)" stroke-width="1px"></line><line x1="266.40000000000003" y1="0" x2="266.40000000000003" y2="5" style="visibility: inherit;" fill="rgb(0, 0, 0)" stroke="rgb(204, 204, 204)" stroke-width="1px"></line><line x1="296" y1="0" x2="296" y2="5" style="visibility: inherit;" fill="rgb(0, 0, 0)" stroke="rgb(204, 204, 204)" stroke-width="1px"></line></g><g transform="translate(0, 8)"><text x="0" y="0" dx="0em" dy="0.95em" style="text-anchor: middle; visibility: hidden; font-family: &quot;Helvetica Neue&quot;, sans-serif; font-size: 12px; font-weight: 200;" fill="rgb(50, 49, 63)" stroke="none" stroke-width="1px">-5k</text><text x="29.6" y="0" dx="0em" dy="0.95em" style="text-anchor: middle; visibility: inherit; font-family: &quot;Helvetica Neue&quot;, sans-serif; font-size: 12px; font-weight: 200;" fill="rgb(50, 49, 63)" stroke="none" stroke-width="1px">0</text><text x="59.2" y="0" dx="0em" dy="0.95em" style="text-anchor: middle; visibility: inherit; font-family: &quot;Helvetica Neue&quot;, sans-serif; font-size: 12px; font-weight: 200;" fill="rgb(50, 49, 63)" stroke="none" stroke-width="1px">5k</text><text x="88.8" y="0" dx="0em" dy="0.95em" style="text-anchor: middle; visibility: inherit; font-family: &quot;Helvetica Neue&quot;, sans-serif; font-size: 12px; font-weight: 200;" fill="rgb(50, 49, 63)" stroke="none" stroke-width="1px">10k</text><text x="118.4" y="0" dx="0em" dy="0.95em" style="text-anchor: middle; visibility: inherit; font-family: &quot;Helvetica Neue&quot;, sans-serif; font-size: 12px; font-weight: 200;" fill="rgb(50, 49, 63)" stroke="none" stroke-width="1px">15k</text><text x="148" y="0" dx="0em" dy="0.95em" style="text-anchor: middle; visibility: inherit; font-family: &quot;Helvetica Neue&quot;, sans-serif; font-size: 12px; font-weight: 200;" fill="rgb(50, 49, 63)" stroke="none" stroke-width="1px">20k</text><text x="177.6" y="0" dx="0em" dy="0.95em" style="text-anchor: middle; visibility: inherit; font-family: &quot;Helvetica Neue&quot;, sans-serif; font-size: 12px; font-weight: 200;" fill="rgb(50, 49, 63)" stroke="none" stroke-width="1px">25k</text><text x="207.2" y="0" dx="0em" dy="0.95em" style="text-anchor: middle; visibility: inherit; font-family: &quot;Helvetica Neue&quot;, sans-serif; font-size: 12px; font-weight: 200;" fill="rgb(50, 49, 63)" stroke="none" stroke-width="1px">30k</text><text x="236.8" y="0" dx="0em" dy="0.95em" style="text-anchor: middle; visibility: inherit; font-family: &quot;Helvetica Neue&quot;, sans-serif; font-size: 12px; font-weight: 200;" fill="rgb(50, 49, 63)" stroke="none" stroke-width="1px">35k</text><text x="266.40000000000003" y="0" dx="0em" dy="0.95em" style="text-anchor: middle; visibility: inherit; font-family: &quot;Helvetica Neue&quot;, sans-serif; font-size: 12px; font-weight: 200;" fill="rgb(50, 49, 63)" stroke="none" stroke-width="1px">40k</text><text x="296" y="0" dx="0em" dy="0.95em" style="text-anchor: middle; visibility: hidden; font-family: &quot;Helvetica Neue&quot;, sans-serif; font-size: 12px; font-weight: 200;" fill="rgb(50, 49, 63)" stroke="none" stroke-width="1px">45k</text></g><line x1="0" y1="0" x2="296" y2="0" fill="rgb(0, 0, 0)" stroke="rgb(204, 204, 204)" stroke-width="1px"></line></g></g></g></g></svg>