<svg viewBox="0 0 330 200" xmlns="http://www.w3.org/2000/svg"><g><g><g><g><g><line x1="58" y1="178" x2="53" y2="178" style="visibility: inherit;" fill="rgb(0, 0, 0)" stroke="rgb(204, 204, 204)" stroke-width="1px"></line><line x1="58" y1="161.8181818181818" x2="53" y2="161.8181818181818" style="visibility: inherit;" fill="rgb(0, 0, 0)" stroke="rgb(204, 204, 204)" stroke-width="1px"></line><line x1="58" y1="145.63636363636363" x2="53" y2="145.63636363636363" style="visibility: inherit;" fill="rgb(0, 0, 0)" stroke="rgb(204, 204, 204)" stroke-width="1px"></line><line x1="58" y1="129.45454545454547" x2="53" y2="129.45454545454547" style="visibility: inherit;" fill="rgb(0, 0, 0)" stroke="rgb(204, 204, 204)" stroke-width="1px"></line><line x1="58" y1="113.27272727272727" x2="53" y2="113.27272727272727" style="visibility: inherit;" fill="rgb(0, 0, 0)" stroke="rgb(204, 204, 204)" stroke-width="1px"></line><line x1="58" y1="97.0909090909091" x2="53" y2="97.0909090909091" style="visibility: inherit;" fill="rgb(0, 0, 0)" stroke="rgb(204, 204, 204)" stroke-width="1px"></line><line x1="58" y1="80.90909090909092" x2="53" y2="80.90909090909092" style="visibility: inherit;" fill="rgb(0, 0, 0)" stroke="rgb(204, 204, 204)" stroke-width="1px"></line><line x1="58" y1="64.72727272727273" x2="53" y2="64.72727272727273" style="visibility: inherit;" fill="rgb(0, 0, 0)" stroke="rgb(204, 204, 204)" stroke-width="1px"></line><line x1="58" y1="48.54545454545453" x2="53" y2="48.54545454545453" style="visibility: inherit;" fill="rgb(0, 0, 0)" stroke="rgb(204, 204, 204)" stroke-width="1px"></line><line x1="58" y1="32.363636363636346" x2="53" y2="32.363636363636346" style="visibility: inherit;" fill="rgb(0, 0, 0)" stroke="rgb(204, 204, 204)" stroke-width="1px"></line><line x1="58" y1="16.181818181818187" x2="53" y2="16.181818181818187" style="visibility: inherit;" fill="rgb(0, 0, 0)" stroke="rgb(204, 204, 204)" stroke-width="1px"></line><line x1="58" y1="0" x2="53" y2="0" style="visibility: inherit;" fill="rgb(0, 0, 0)" stroke="rgb(204, 204, 204)" stroke-width="1px"></line></g><g transform="translate(48, 0)"><text x="0" y="178" dx="0em" dy="0.3em" style="text-anchor: end; visibility: hidden; font-family: &quot;Helvetica Neue&quot;, sans-serif; font-size: 12px; font-weight: 200;" fill="rgb(50, 49, 63)" stroke="none" stroke-width="1px">-0.5</text><text x="0" y="161.8181818181818" dx="0em" dy="0.3em" style="text-anchor: end; visibility: inherit; font-family: &quot;Helvetica Neue&quot;, sans-serif; font-size: 12px; font-weight: 200;" fill="rgb(50, 49, 63)" stroke="none" stroke-width="1px">0</text><text x="0" y="145.63636363636363" dx="0em" dy="0.3em" style="text-anchor: end; visibility: hidden; font-family: &quot;Helvetica Neue&quot;, sans-serif; font-size: 12px; font-weight: 200;" fill="rgb(50, 49, 63)" stroke="none" stroke-width="1px">0.5</text><text x="0" y="129.45454545454547" dx="0em" dy="0.3em" style="text-anchor: end; visibility: inherit; font-family: &quot;Helvetica Neue&quot;, sans-serif; font-size: 12px; font-weight: 200;" fill="rgb(50, 49, 63)" stroke="none" stroke-width="1px">1</text><text x="0" y="113.27272727272727" dx="0em" dy="0.3em" style="text-anchor: end; visibility: hidden; font-family: &quot;Helvetica Neue&quot;, sans-serif; font-size: 12px; font-weight: 200;" fill="rgb(50, 49, 63)" stroke="none" stroke-width="1px">1.5</text><text x="0" y="97.0909090909091" dx="0em" dy="0.3em" style="text-anchor: end; visibility: inherit; font-family: &quot;Helvetica Neue&quot;, sans-serif; font-size: 12px; font-weight: 200;" fill="rgb(50, 49, 63)" stroke="none" stroke-width="1px">2</text><text x="0" y="80.90909090909092" dx="0em" dy="0.3em" style="text-anchor: end; visibility: hidden; font-family: &quot;Helvetica Neue&quot;, sans-serif; font-size: 12px; font-weight: 200;" fill="rgb(50, 49, 63)" stroke="none" stroke-width="1px">2.5</text><text x="0" y="64.72727272727273" dx="0em" dy="0.3em" style="text-anchor: end; visibility: inherit; font-family: &quot;Helvetica Neue&quot;, sans-serif; font-size: 12px; font-weight: 200;" fill="rgb(50, 49, 63)" stroke="none" stroke-width="1px">3</text><text x="0" y="48.54545454545453" dx="0em" dy="0.3em" style="text-anchor: end; visibility: hidden; font-family: &quot;Helvetica Neue&quot;, sans-serif; font-size: 12px; font-weight: 200;" fill="rgb(50, 49, 63)" stroke="none" stroke-width="1px">3.5</text><text x="0" y="32.363636363636346" dx="0em" dy="0.3em" style="text-anchor: end; visibility: inherit; font-family: &quot;Helvetica Neue&quot;, sans-serif; font-size: 12px; font-weight: 200;" fill="rgb(50, 49, 63)" stroke="none" stroke-width="1px">4</text><text x="0" y="16.181818181818187" dx="0em" dy="0.3em" style="text-anchor: end; visibility: hidden; font-family: &quot;Helvetica Neue&quot;, sans-serif; font-size: 12px; font-weight: 200;" fill="rgb(50, 49, 63)" stroke="none" stroke-width="1px">4.5</text><text x="0" y="0" dx="0em" dy="0.3em" style="text-anchor: end; visibility: hidden; font-family: &quot;Helvetica Neue&quot;, sans-serif; font-size: 12px; font-weight: 200;" fill="rgb(50, 49, 63)" stroke="none" stroke-width="1px">5</text></g><line x1="58" y1="0" x2="58" y2="178" fill="rgb(0, 0, 0)" stroke="rgb(204, 204, 204)" stroke-width="1px"></line></g></g><g transform="translate(58, 0)" clip-path="url(#clip_0)"><clipPath id="clip_0"><rect width="272" height="178"></rect></clipPath><g><g><g><line x1="0" y1="0" x2="0" y2="178" fill="rgb(0, 0, 0)" stroke="rgb(60, 60, 60)" stroke-width="1px" opacity="0.25"></line><line x1="27.200000000000003" y1="0" x2="27.200000000000003" y2="178" fill="rgb(0, 0, 0)" stroke="rgb(60, 60, 60)" stroke-width="1px" opacity="0.25"></line><line x1="54.400000000000006" y1="0" x2="54.400000000000006" y2="178" fill="rgb(0, 0, 0)" stroke="rgb(60, 60, 60)" stroke-width="1px" opacity="0.25"></line><line x1="81.6" y1="0" x2="81.6" y2="178" fill="rgb(0, 0, 0)" stroke="rgb(60, 60, 60)" stroke-width="1px" opacity="0.25"></line><line x1="108.80000000000001" y1="0" x2="108.80000000000001" y2="178" fill="rgb(0, 0, 0)" stroke="rgb(60, 60, 60)" stroke-width="1px" opacity="0.25"></line><line x1="136" y1="0" x2="136" y2="178" fill="rgb(0, 0, 0)" stroke="rgb(60, 60, 60)" stroke-width="1px" opacity="0.25"></line><line x1="163.2" y1="0" x2="163.2" y2="178" fill="rgb(0, 0, 0)" stroke="rgb(60, 60, 60)" stroke-width="1px" opacity="0.25"></line><line x1="190.39999999999998" y1="0" x2="190.39999999999998" y2="178" fill="rgb(0, 0, 0)" stroke="rgb(60, 60, 60)" stroke-width="1px" opacity="0.25"></line><line x1="217.60000000000002" y1="0" x2="217.60000000000002" y2="178" fill="rgb(0, 0, 0)" stroke="rgb(60, 60, 60)" stroke-width="1px" opacity="0.25"></line><line x1="244.8" y1="0" x2="244.8" y2="178" fill="rgb(0, 0, 0)" stroke="rgb(60, 60, 60)" stroke-width="1px" opacity="0.25"></line><line x1="272" y1="0" x2="272" y2="178" fill="rgb(0, 0, 0)" stroke="rgb(60, 60, 60)" stroke-width="1px" opacity="0.25"></line></g><g><line x1="0" y1="178" x2="272" y2="178" fill="rgb(0, 0, 0)" stroke="rgb(60, 60, 60)" stroke-width="1px" opacity="0.25"></line><line x1="0" y1="161.8181818181818" x2="272" y2="161.8181818181818" fill="rgb(0, 0, 0)" stroke="rgb(60, 60, 60)" stroke-width="1px" opacity="0.25"></line><line x1="0" y1="145.63636363636363" x2="272" y2="145.63636363636363" fill="rgb(0, 0, 0)" stroke="rgb(60, 60, 60)" stroke-width="1px" opacity="0.25"></line><line x1="0" y1="129.45454545454547" x2="272" y2="129.45454545454547" fill="rgb(0, 0, 0)" stroke="rgb(60, 60, 60)" stroke-width="1px" opacity="0.25"></line><line x1="0" y1="113.27272727272727" x2="272" y2="113.27272727272727" fill="rgb(0, 0, 0)" stroke="rgb(60, 60, 60)" stroke-width="1px" opacity="0.25"></line><line x1="0" y1="97.0909090909091" x2="272" y2="97.0909090909091" fill="rgb(0, 0, 0)" stroke="rgb(60, 60, 60)" stroke-width="1px" opacity="0.25"></line><line x1="0" y1="80.90909090909092" x2="272" y2="80.90909090909092" fill="rgb(0, 0, 0)" stroke="rgb(60, 60, 60)" stroke-width="1px" opacity="0.25"></line><line x1="0" y1="64.72727272727273" x2="272" y2="64.72727272727273" fill="rgb(0, 0, 0)" stroke="rgb(60, 60, 60)" stroke-width="1px" opacity="0.25"></line><line x1="0" y1="48.54545454545453" x2="272" y2="48.54545454545453" fill="rgb(0, 0, 0)" stroke="rgb(60, 60, 60)" stroke-width="1px" opacity="0.25"></line><line x1="0" y1="32.363636363636346" x2="272" y2="32.363636363636346" fill="rgb(0, 0, 0)" stroke="rgb(60, 60, 60)" stroke-width="1px" opacity="0.25"></line><line x1="0" y1="16.181818181818187" x2="272" y2="16.181818181818187" fill="rgb(0, 0, 0)" stroke="rgb(60, 60, 60)" stroke-width="1px" opacity="0.25"></line><line x1="0" y1="0" x2="272" y2="0" fill="rgb(0, 0, 0)" stroke="rgb(60, 60, 60)" stroke-width="1px" opacity="0.25"></line></g></g></g><g><g><line x1="0" y1="161.8181818181818" x2="272" y2="161.8181818181818" fill="rgb(0, 0, 0)" stroke="rgb(153, 153, 153)" stroke-width="1.5px"></line></g></g><g><g><line x1="27.200000000000003" y1="0" x2="27.200000000000003" y2="178" fill="rgb(0, 0, 0)" stroke="rgb(153, 153, 153)" stroke-width="1.5px"></line></g></g><g><g><g><g><g><path stroke="rgb(255, 112, 67)" stroke-width="2px" d="M28.4784,-1.7779544460739203L28.592640000000003,0.3858866052960366L28.69056,3.8328681931369886L28.880959999999998,1.6802903241125762L28.89184,4.431005280523834L28.93536,5.865509344139866L29.49568,3.5235625702479467L29.70784,9.172894943012665L29.784,10.276096588194008L30.121280000000002,13.215388216875311L30.3552,10.781160686931912L30.39328,9.975875889844275L30.6544,13.708644921991208L30.72512,16.76920547705089L30.85568,14.627124886686744L31.0896,19.207350929198185L31.13312,13.837144692105483L31.39968,14.061359076841313L31.47584,20.05107885384774L31.56832,14.720067676004504L31.60096,21.807584140868045L31.75328,21.597727500151024L32.34624,25.416769401169915L32.487680000000005,28.9071615628024L32.7216,31.44556311672173L33.00448,26.641607754237356L33.2112,27.860606630499603L33.62464,20.63419625090134L34.065279999999994,24.232114257170878L34.36448,17.526584436598796L34.3808,17.970876229998538L34.456959999999995,18.341017537350837L34.47872,21.645793474127174L34.73984,26.623838243868533L34.77792,29.301149885767558L35.01728,28.063897205591957L35.18048,29.57598316476995L35.49056,30.921625554978874L35.648320000000005,32.83031337868837L35.73536,27.112754717896365L35.8224,16.26279026329371L36.12704,18.538899714379795L36.40448,20.48951077839544L36.5024,29.46108598894247L36.55136,30.399637820487413L36.6384,31.130054908061766L36.65472,23.01383270299067L36.89408,24.43525567317991L37.236799999999995,22.61414935384863L37.35648,20.054135174607836L37.3728,22.567584416258683L37.41632,25.075520007830306L37.63392,25.432301793775366L37.7264,29.265676382718254L37.79712,30.125412057020156L38.28128,29.675426930782862L38.60768,28.016856594309104L39.10272,35.4238729251133L39.168,40.351304666170364L39.342079999999996,37.95803473359331L39.374719999999996,37.62809594378817L39.483520000000006,36.90243911243809L39.51072,35.43060906178053L39.755520000000004,36.79125842336981L39.8208,36.07576373070762L40.0112,29.582065221073663L40.2016,23.38872559184324L40.20704,25.979922239200192L40.457280000000004,28.13318821090573L40.54976,30.78169105907199L40.56064,33.229534228128784L40.58784,29.197123110244576L40.723839999999996,31.509744637125323L40.72928,27.702014786230706L40.794560000000004,29.120119730305333L40.82176,30.379312437820573L40.979519999999994,34.377199666186044L41.06112,32.564094818688716L41.093759999999996,31.327504980305378L41.81184,33.63007181098928L42.11104,38.78424079289948L42.3776,35.954883539483404L42.95968,29.348636823384282L43.34592,27.83649508085452L43.73216,35.87967053740013L43.74848,38.44290176075887L44.064,35.03441645483295L44.40128,35.097361328647224L44.77664,32.50365966702458L44.852799999999995,36.26234135081472L44.86368,36.00604771710698L44.869119999999995,35.531521930345235L45.184639999999995,36.425877717686404L46.13664,32.59378594891345L46.78944,29.188053925369218L46.88736,26.165470183075428L46.898239999999994,31.33050895552921L47.17024,24.472989656671018L47.55648,30.131145800619493L47.83936,28.756646083818083L47.9536,33.836546973164786L47.99168,35.53982737344768L48.57376,35.46316595908439L48.726079999999996,35.938325819414445L48.8784,38.52829327032774L49.161280000000005,42.37588315783532L49.49856,36.32084409004477L50.031679999999994,40.433322671300914L50.20032,44.97285334234127L50.22752,36.592459287349556L50.68992,33.912622874302315L50.7008,37.373239329845916L51.141439999999996,37.66348638756071L51.64192,40.423912191035186L51.7344,36.60177078279045L51.84864,42.759123677572944L52.38176,41.28322097047328L52.5776,42.4806966922427L52.59936,33.19628823144271L52.64288,38.4260310668796L53.25216,40.44233789457323L53.328320000000005,36.14492367759502L53.535039999999995,36.47729700961014L53.60032,45.10549608068203L53.8288,47.83246196680716L54.198719999999994,45.354361792632716L54.24768,40.23255792320802L54.264,39.38106746395505L54.677440000000004,43.988530536999605L54.68832,50.32661563823781L54.982079999999996,52.30704006551542L55.1344,59.31261042171751L55.705600000000004,56.52449187699422L56.1952,56.9370755656351L56.28224,54.457450454655486L56.358399999999996,49.84626712317606L56.690239999999996,45.87444562121527L57.21792,41.7339588302907L57.391999999999996,42.10043538159732L58.017599999999995,50.09818532618836L58.0992,43.72484731493171L58.33856,41.69601610707787L58.80096,41.16106106203438L58.89344,38.46975055722774L58.90976,43.78405483745823L59.105599999999995,52.0201934678382L59.143679999999996,55.78794655986901L59.33952,56.769303335802675L59.45376,49.51671876642047L59.791039999999995,65.71271708645438L59.89984,65.01083423469501L60.50368,61.857140507984525L60.558080000000004,62.81309113200089L60.93344,63.1094707359899L61.00416,59.157164251585314L61.0368,55.861192995313075L61.10752,51.76831000269057L61.4176,44.97683619167236L61.542719999999996,53.30238911379038L61.56992,60.41012603738332L61.890879999999996,58.92347159899765L62.674240000000005,57.07133547369841L62.968,53.355416451102684L63.12576,43.566088271587944L63.41952,47.365620475005585L63.63168,54.313567927797635L63.648,56.65618433423491L63.71328,58.92499471113017L63.88192,51.15847720501432L64.44768,48.92733106402889L64.4912,50.08111023165766L64.5728,42.56953067966202L65.10048,40.848490447225515L65.24192,48.23585255572263L65.36160000000001,46.698444934503556L65.86207999999999,52.965013635768685L65.90559999999999,47.4548673417047L66.12864,52.86424267091567L66.62912,55.43174476283805L66.97728,59.40264623184447L67.1296,51.58816519564061L67.13504,58.80051037079957L67.2384,59.437927083528436L67.36352,55.61919028629555L67.46688,52.259286849123924L67.73344,51.79502502410999L67.78784,51.01124003394038L67.80416,56.70363254823032L67.88576,56.88057181046382L68.06528,52.980199122272325L69.02271999999999,47.36179900842231L69.05536,48.659342476539734L69.41984,47.71742385799433L69.57216,49.77597390974981L69.62656,60.61596692024055L69.81696000000001,51.88239003733189L70.18144000000001,45.58702367209162L70.35552,53.588133622802985L70.67648,53.01432471064834L70.86688,56.496610532007224L71.08448,53.04419527168358L71.70464000000001,60.42584348949002L71.89504,64.00814618646196L71.92768000000001,61.74103524600304L72.30304,59.01429738692872L72.5424,57.114185965536464L72.70016000000001,64.81699521248358L72.72736,56.363642620950344L72.77632,46.81175422244303L73.26592,53.190291266187714L73.28224,53.22850077495542L73.43456,51.515060661482664L73.48895999999999,58.99706701254743L73.80448000000001,52.4371848935007L73.99488,52.911326284818415L74.17984,58.89306541657808L74.50624,64.68929387062806L75.18079999999999,61.818101956689816L75.19712,55.902826957922244L75.50176,54.2219892528486L75.64320000000001,58.025452279220175L75.65952,63.13621589327296L75.77376,62.68628769192118L75.81184,63.7527152764107L76.12736000000001,58.47164845030834L76.16000000000001,58.10494318545274L76.46463999999999,54.96541326465376L77.39488,56.417604015790786L77.43296,52.4299306572362L77.57983999999999,55.59414930519954L77.88448,52.1527080996936L78.05856,53.92075728805655L78.40672,55.846299978272086L78.42304,58.20926828237545L78.53183999999999,68.33212843398182L78.71136000000001,65.13872684696955L79.14112,62.69934337597394L79.17920000000001,57.96636853197255L79.24992,59.377710184525014L79.57632,58.87674254360391L79.73952,59.27015778230695L79.86464,60.380314238875854L79.96256000000001,62.754313838775985L80.34335999999999,60.21861927838286L80.75135999999999,61.900844901372054L81.09952,70.9024782160376L81.92096000000001,70.46041468006102L82.06240000000001,75.39291894433214L82.51935999999999,71.25347947787527L83.10687999999999,66.86381392905807L83.14496,66.16501608950752L83.75968,54.69161619790353L83.776,62.660675317530405L83.89024,67.69311853381335L84.21119999999999,71.60372847923337L84.2656,71.39444045352954L84.44512,71.62334640924111L84.90752,63.05324907154905L85,52.33123366612651L85.07616,61.432596818138535L85.1632,61.33201002204454L85.25568,60.39622874066616L85.47328,65.80989563775864L85.72352,62.89959424829456L85.72896,60.21265822858926L85.84864,64.30344283396401L86.03904,67.96535864754698L86.18048,70.62790631137183L86.22944000000001,65.62445591582188L86.51232,64.77158599209672L86.52864000000001,68.50448336121826L86.71359999999999,75.75084411865872L86.73536,76.53786399818432L86.86048000000001,77.24948621542359L86.89312000000001,82.27959197041521L86.904,81.40920964631762L87.12159999999999,80.77800523823488L87.15424,69.14026956176313L87.22496000000001,72.30827571428935L87.25216,66.18341935984938L87.60032000000001,68.40356346898506L87.70368,69.75509871400548L87.75264,60.203447291268546L88.12256,60.5959769473354L88.13344,63.337021621312786L88.13888,66.74214133105838L88.45984,68.11221453689215L89.32480000000001,66.56953799890681L89.61312,68.30898767978658L89.72192,65.66610228942206L89.89056,66.27108179577453L89.93952,56.002842450422136L90.03200000000001,60.687309693314845L90.12448,62.620524497359796L90.29311999999999,59.412175099704754L90.57056,63.797753450231326L90.69568000000001,64.39531906352525L90.77184,64.45917766360148L91.1744,60.82848340005606L91.79456,63.018760459482735L92.3168,62.63920612623612L92.34400000000001,69.05721959304704L92.53984000000001,75.37998638829906L92.70848,58.68621567573025L93.23616,65.01986146276515L93.3776,74.131821799824L93.39936,72.32405989722871L93.4864,73.5743519543896L93.71488000000001,81.01497267146347L94.06304,87.77977173850323L94.07936000000001,84.57042733082248L94.1664,76.85737909782375L94.68863999999999,73.12935387884868L94.97695999999999,64.83023788559125L95.49376,67.05016082944559L96.13568,71.8636966024192L96.288,70.92048206650693L96.60896,70.95245185099036L96.86464,72.00130073937731L97.25632,71.3216622887579L97.35968,73.8269070963585L97.59360000000001,72.12262190604584L98.01792,64.80736691887097L98.1104,69.5808058050941L98.25728000000001,65.77266682238259L98.37151999999999,68.14737791067148L98.4368,74.11297553030067L98.5184,73.17165606176003L98.54016,76.474596405917L98.63264,72.65604861095522L98.82848,67.15782180315921L99.04608,69.0417902437539L99.2256,62.97277441482848L99.824,65.80041844786366L100.11232,69.81307912481373L100.13408000000001,63.73374234060688L100.24288,62.60850745773773L100.50944,68.82307968611143L100.6672,72.82643059395878L100.89568,72.85842672381769L101.17312,75.60117788025245L101.29823999999999,76.78144175699593L101.61919999999999,81.94594178896949L101.63552,83.16949343912555L101.98912,82.47729281305821L102.14688,69.40014246455816L102.33184,62.590656283442485L102.52224,69.85606372743996L102.7344,67.61157569076462L103.13152,68.99462787160152L103.23488,75.10827458957577L103.35455999999999,75.11708956849331L103.80064,71.82741399471024L104.56768,79.37222340250523L104.92672,80.3355135317472L104.96480000000001,81.8336062770839L105.01375999999999,82.27889008045572L105.10624,80.69678922682364L105.17152,78.82650322070069L105.20416,77.43654584362979L105.52512,78.86491889476821L105.79711999999999,87.22258372467982L106.0528,84.64856187190664L106.24864000000001,76.16987729214523L106.3792,75.76600148103621L106.39552,76.21816902167163L106.80352,77.73395389668777L106.83616,71.31739478943614L106.99936,81.74879662182218L107.04832,78.89524845147356L107.07007999999999,76.57826532329109L107.10272,79.25557219476873L107.6032,75.14375105020372L107.60864000000001,73.73837218941082L107.65216000000001,77.5091875304317L107.67392,84.35630787428121L107.7664,85.8365541538729L108.11456,84.97788752472322L108.21791999999999,82.42369776012127L108.40288,78.4607336067315L108.95232000000001,78.93101405615863L109.29504,84.72403624132497L109.54527999999999,84.8318808045713L109.78464,88.82445500175237L109.888,79.2022916375744L110.25247999999999,80.0853377281589L110.568,83.59614330475819L110.69312,84.79821292954954L111.37856000000001,81.99942706513804L111.38944,86.9797712220438L111.56352000000001,92.4083714812294L111.73216,85.5388770979478L112.05311999999999,85.1300719424614L112.83104,84.29115306028676L112.9616,84.5738284093054L113.01056,78.93638690767735L113.29344,74.17059792202073L113.30976,82.11669242057785L114.13119999999999,85.07098655964708L114.20736,86.53768385288025L114.76224,84.44692710899548L114.87648,88.1823323494228L115.6,83.41576653139172L115.99168,78.15532579152644L116.11135999999999,75.07325794287519L116.20384,79.5560283111922L116.45408,82.52090264241122L116.63904,85.09008564939306L116.99264,88.39276130374517L117.28640000000001,88.9727472098798L117.42784,88.9205832092894L117.45504,88.33397667034585L117.84128,80.8704179838171L118.03712,76.20331230032973L118.30368,81.55657807047255L118.64096,82.81358497833916L118.6464,85.07074260101962L118.83136,84.69727658754442L118.90752,79.51122931115727L119.136,82.50191286156925L120.04448000000001,87.7685859690376L120.21312,81.32810955379816L120.39808,80.6925817418695L120.78432000000001,89.0989718840981L120.98559999999999,83.65792489597523L121.16512,93.8332009733903L121.26304,92.4961209064221L121.27391999999999,88.17900622694388L121.39904,90.74640748832331L121.40448,93.61206453792909L121.40992,95.77933404046742L121.42623999999999,99.47057059786184L121.52959999999999,88.23347515052103L121.72,92.46841123079132L121.88864000000001,93.81282367770343L122.1008,96.26035533308303L122.1552,92.93490122177458L122.63936,94.61464124354661L122.71552,97.03755824119038L122.87328,108.16794616294668L122.91136,95.55567279673112L122.91680000000001,96.47710643143337L123.07455999999999,97.7231230853311L123.23776,96.3029146445652L123.61312,84.02836035676368L123.87968000000001,81.23913308801882L124.0592,78.53078035282903L124.26592,77.57610243589691L124.86976,80.1623787334142L125.00576,83.72063878586641L125.02208,87.67389749063308L125.07104,91.20692862291571L125.22336,87.79361413939748L125.41376,94.99766530782375L125.47904,94.15507016741459L125.8272,91.39308469988934L125.91968,86.61594381534867L126.2896,93.61548443368712L126.40928,94.73966049693689L126.5616,99.78867858938588L126.85536,99.26803799020996L127.57888,96.30523164249911L127.58431999999999,98.85366763058458L128.34592,89.49386835711968L129.00415999999998,82.57846884615978L129.04224,84.76699868297531L129.72224,95.97403445483376L129.98336,91.54870868085034L130.33696,79.67438512029415L130.44031999999999,80.61227724735933L130.59264,83.31094257414914L130.71232,76.70297456415622L130.82656,81.97749529461393L131.19648,87.89846885460523L131.4848,86.77160103334197L131.80032,90.81708380417335L132.03968,85.2013177549651L132.19744,88.53410078707633L133.20383999999999,93.39365987183224L133.28544,87.8122759299497L133.30176,98.3033171547982L133.42144,92.85386922707976L133.45408,98.97192385264991L133.71519999999998,97.54876411597314L133.7968,98.85179650020667L134.04703999999998,100.76398693946547L134.1232,93.86453567053886L134.18304,98.08230694593698L134.48224000000002,100.05925886548833L134.54208,98.63355871893238L134.57471999999999,103.05386432679347L134.89568,105.53725333868168L135.04255999999998,105.9412465677821L135.16768,103.11618712811187L135.54848,95.96099961671399L135.66816,99.44117182343301L135.84768,99.42208193171462L135.94016,99.60473913048048L135.97824,93.4237196345405L136.19584,88.05671686190495L136.29376,92.69251969035912L136.3264,95.86693548160741L136.34272,94.5895899417164L136.75616,94.98558551326705L136.76160000000002,90.18392574493458L136.77247999999997,89.12747541909458L137.01728,91.28490086740874L137.18592,91.88958043740196L137.3328,90.81741176612908L137.34912,97.51428716249261L137.37632,96.68028494684837L137.68096,102.45983787703612L137.76256,101.59181380660688L137.81152,104.31497815053498L137.82240000000002,104.6196344491339L138.08896000000001,102.97395519557742L138.39904,105.45134076183467L138.64383999999998,106.67284157538982L138.86688,110.91613278189377L138.9376,107.33581098782416L138.94304000000002,103.91900556768552L139.06272,97.71649673404632L139.08992,101.11325657102354L139.14976000000001,96.29191925991897L139.7536,97.61801382444267L139.86784,98.7449768948412L140.24319999999997,102.18210281160238L140.25952,102.86654196999083L140.26496,109.23554730692811L140.52608,110.56091548558051L140.65664,108.04586620582131L140.97216,105.77480059490281L141.37472,102.31676373902857L141.59232,102.22971211045342L141.63584,103.14560817191433L141.80992,105.47693645436594L141.88064,103.31561817422352L142.2288,101.6065660989997L142.5824,97.91319439725568L142.70752000000002,99.11313566871826L143.16448,100.43247290767835L143.1808,97.6622521390294L143.208,102.43026370713625L143.57247999999998,106.08376460306854L143.6704,104.77870160415983L144.0784,104.20055588295138L144.29056,106.050423284324L144.296,108.54989521921624L145.15008,104.38253877520444L145.37856,105.00467117302436L145.384,107.05430674983685L145.73760000000001,114.64116914765954L145.77024,118.30741437357511L145.91168000000002,120.21212468207776L146.02592,118.32945736921884L146.05856,115.00620659924661L146.38496,114.56107241676148L146.70592,108.89114959402511L146.88,106.26683088877793L146.91807999999997,105.21962683846986L148.08224,98.08327404147349L148.21823999999998,102.72063340773958L148.28896,102.71719755950647L148.43583999999998,101.53019878758576L148.47392,105.50144973433832L148.56096,110.15909725354437L148.60448000000002,111.35689836844584L148.68064,105.75535740954378L148.83296,105.60166334862012L149.20832000000001,112.47678911515308L149.22464,104.32257501408223L149.45311999999998,106.23035127866957L149.64352,109.5759743734356L149.8448,106.16799355175284L150.33984,110.77411280270387L150.42687999999998,112.08381471332706L151.00896,107.99992844667598L151.04704,99.4162568155276L151.11232,108.09029560809135L151.38976,112.07975033567539L151.45504,110.59422841010738L151.94464,113.38816629424426L151.96096,117.10655460567614L152.76064,108.77428024960409L152.7824,110.475629560811L152.78784,114.73792878650913L153.01631999999998,116.16946612033331L153.07616,112.72477129859232L153.10336,109.09527874841636L153.13056,111.92426663050934L153.31552000000002,106.30963419744586L153.36992,112.84066243187297L153.51136,112.09165996348307L153.75616,111.7946673124093L153.88128,112.76969288148571L154.15872000000002,121.842486639533L154.28928,123.61985213793584L154.39264,123.22900563670063L154.4688,110.06462029420766L154.64831999999998,110.85811910590694L155.26304,103.36508821386037L155.5296,108.26903525780327L155.97024000000002,107.75361854795476L156.03008,113.2599670841707L156.13888,119.3409126601519L156.46528,125.15738435668368L156.536,124.12983032676632L156.73728,122.42618178634793L156.84608,115.30219715679428L156.90592,121.01708287586644L157.42816,123.83245894931017L158.1952,120.07895844980946L158.40736,120.0860291924273L158.56512,122.42118793178744L158.77728000000002,122.98023380966262L159.0384,120.05413183426663L159.29952,124.27842338996902L159.3104,121.07529603411925L159.35392000000002,125.5864795888086L159.51712,120.77571658689254L159.64224,121.27082150653808L159.7184,118.71096182882914L160.02848,116.66720354727543L160.55072,118.28653574810122L160.79552,118.50768719384219L160.81727999999998,118.82505799409701L161.14368,115.87386644545892L161.39392,124.76014512641264L161.55712,126.1657808618329L161.67680000000001,122.85989351090785L161.72032,121.90789093264561L162.384,124.04562744496886L162.5472,126.03755138879907L162.66688,122.5985961184423L162.84640000000002,122.6615808155675L163.24896,123.17096141344878L163.46112000000002,121.95134802771585L163.92896,121.33775281789119L164.32608,123.55530323084199L164.46208,125.55722309925241L164.5328,124.85724032734663L164.58175999999997,123.51974093391335L165.01152,123.36254767509375L165.33248,123.32950820770873L165.95264,124.21508872495153L166.03423999999998,130.63101716282586L166.464,131.03877369670948L166.80128,128.52459314543376L166.93728,131.65888131552498L167.42144,126.61664493931697L167.62272000000002,124.41027429186491L167.81312,128.53145132589253L167.99264,128.33814767334763L168.21568,120.55528333434995L168.8032,124.94737558339446L168.89024,124.39715837967844L169.00448,128.99504605865002L169.05344,128.76020852297967L169.14048,128.58434681354495L169.4832,125.31590342065593L169.48864,128.29877759145361L169.5648,127.73877357100419L170.16320000000002,128.01433644143268L170.23391999999998,126.37877997552627L170.29376,124.15102585248461L170.83776,129.64815047676217L171.20224,129.36019189263095L171.43072,127.78942796320278L172.29023999999998,125.58010058213394L172.7472,129.8230993010504L172.75808,129.93971591062848L172.98112,121.40501588347658L172.98656,128.57513683891682L173.0736,131.26738043312486L173.14432,129.9593199125154L173.1552,123.67663882920911L173.69376,123.004386540529L174.50976,126.70373133892701L174.85792,126.16693876344362L174.89056,131.75535426152712L174.9232,132.35311366185707L174.94495999999998,129.07440106609863L174.9504,132.23282653411337L175.35840000000002,136.8602403620696L175.576,139.33605162675903L175.87519999999998,131.4489505550044L176.52800000000002,125.94773426960575L176.57152,127.8072018475468L176.83264,123.85430007892987L177.1808,129.42288178278767L177.19712,131.5419345061346L177.36576,128.5912386295721L177.42015999999998,132.70774031571943L177.45824,130.4285434356444L177.55616,131.54468581535463L177.86623999999998,127.58403356226819L177.97504,129.54079184620926L177.99136,132.67796873198336L178.1056,132.32760851995937L178.57344,132.53149224056665L179.06848000000002,134.95152053757943L179.07935999999998,136.50759685223517L179.25344,135.7815376689354L179.35136,132.73022307874646L180.89087999999998,132.09911723586262L181.03232,132.60602782572244L181.27168,135.76951024445594L181.57088000000002,137.3082268810873L181.90816,136.03936531018314L181.97888,135.26093656210801L182.47936,132.6089704879771L182.63711999999998,134.95200480705464L182.84928,138.84648469392926L183.20288,127.86019496638758L184.37248,128.1143371350327L184.80224,132.45388279932087L184.94368,134.64572735748877L185.06336,135.91562618287816L185.16672,134.43456427595135L185.27552,133.78753944083894L185.30272,134.7061612018305L185.38976,137.87142364753444L185.45504,139.13632681476264L185.54208,140.7223867881377L185.68895999999998,133.9720799207824L186.05888,133.54242648841085L186.32544,137.95309321336578L186.39616,141.74137282853255L186.43968,139.5036844194061L186.95648,138.6885221764416L187.52768,137.38957939649964L187.56575999999998,135.87180982882495L187.61472,140.87884761193075L187.88672000000003,140.15954115465746L187.90304,138.97711610589414L188.01728,138.38331939329782L188.08256,140.61607836621752L188.18592,138.80385591134896L188.28928,140.27896106561127L189.02912,139.81611477642141L189.46976,141.1251541761771L189.4752,142.8279215112379L189.66016,140.71566535143256L189.76351999999997,144.69410216719092L190.01376,145.36027730015832L190.40544,143.87508247094092L190.43264,143.36709492320114L190.57408,138.85614739204223L190.82432,140.07854035071745L190.90592,141.5329361805357L191.352,142.4178381559616L191.58592,142.1234862813218L191.69472000000002,141.3250332068387L191.72735999999998,140.65199944346827L191.79808,140.7977789595186L191.9504,143.39060963830138L192.18431999999999,144.01652127100368L192.7664,142.5384703088308L192.9024,145.5447435689637L192.94047999999998,144.41361034340107L192.96224,143.48160457658855L193.5008,141.05855260740265L193.51712,140.15579046640738L193.73472,141.17134075407972L194.24608,141.30480027391928L194.32224000000002,144.69296673945883L194.42015999999998,143.08877698145403L194.64864,144.21357024071992L195.18720000000002,144.04843054207987L196.12832,142.2331049162338L196.41664,143.47166184012963L197.00416,145.16118300064977L197.06400000000002,146.13307432471095L197.73312,147.61114593315162L198.05408,148.87417122592294L198.25536,147.9037787444256L198.3696,145.51323117907626L198.57088000000002,146.72234310367892L198.76672,145.8739515102623L198.77215999999999,145.09552516053284L198.90816,145.18358485060006L199.24543999999997,146.3368697364175L199.63168000000002,141.18729237946525L199.77312,143.03392489080207L199.99072,145.14725249847123L200.24095999999997,145.8671774014127L200.59456,145.28287789827036L200.63264,144.74084652207938L200.67616,143.2233155618489L200.93728,141.30924802429175L200.98624,143.7648485867379L201.3072,146.14928949947583L201.37792000000002,145.79191872122556L202.16672,143.54674261410463L202.23200000000003,143.54088353344937L202.41152000000002,143.82266830015664L202.64,146.00609609251185L202.9936,143.55491645392777L203.39616,146.9489733957482L203.65184000000002,141.84649163216596L203.84768,145.04856874411848L204.00544,144.32834042361526L204.16320000000002,143.24575403103887L204.23391999999998,144.7713948376249L204.25024000000002,144.40332120251173L204.60928,145.55092861445922L204.6256,146.45957466827082L204.85952,146.8659729956468L205.12608,145.0939183999093L205.43072,144.83358865382496L206.1488,146.66396474658058L206.18688,146.7010328624909L206.19232,147.4592696036852L206.2304,148.00461469907196L206.58399999999997,149.15787040513425L206.73631999999998,149.17446840937058L206.8016,148.4162756331972L206.87232,148.562492638089L206.9104,148.10062316565035L207.53056,147.44621863678736L207.55231999999998,147.17081257005526L207.6992,148.00175772998986L207.71008,146.03604189891L208.07456,147.30793099767965L208.19968,147.11000550937231L208.58048,147.16649109367268L208.63488,147.94800892067894L208.72735999999998,148.64539026986068L208.76543999999998,148.79367288123933L208.78176000000002,149.04767139496644L208.85792,148.76194401591817L208.91776,149.48359748342233L209.6576,150.0188768964676L209.85888,150.81293919460995L210.15807999999998,151.67486470707107L210.19616000000002,152.3173446847881L210.54976,151.04152076513236L210.68576000000002,150.95796000063612L210.73472,151.17263741835566L210.8,150.80781945639737L210.90336,149.6961218957196L210.99584,147.29473701202147L211.07744000000002,148.54938002871515L211.2896,149.48123154904758L211.35487999999998,150.52687632747882L211.49088,148.41236696404872L211.65408000000002,147.97596768917546L211.69216,146.3841267603882L212.00768,148.28413393164735L212.25792,147.98639984880762L212.36128,146.8982495784163L212.39936,149.46724241697893L212.64960000000002,150.2779671906265L212.93248,145.83194358312213L212.9488,146.4337722672338L213.1392,147.20248935591783L213.64512000000002,145.32117609063766L213.83007999999998,145.98455252067203L213.84640000000002,145.05279534460516L214.12928000000002,146.41318825750156L214.13472,147.3062257661235L214.24896,145.76862354236198L214.54816,147.48727628813538L215.02144,148.30757472494398L215.02688,148.9173156904149L215.16832,149.45801917833472L215.2336,149.50807162506112L215.3152,150.09460382605081L215.424,149.9863816857591L215.47296,151.88258182054184L215.52192,150.43619707135835L215.68512,149.5854641636858L215.95167999999998,149.66237812284385L216.25088,149.78419239886864L216.42496000000003,150.49026684055534L216.54464000000002,150.1044990284342L216.94176,145.90680528954954L217.76864,146.16202996907845L218.0352,147.46396087518156L218.23104,149.6617469759103L218.56832000000003,149.84300769947924L218.9872,150.4756879699832L219.00352,146.80032646683637L219.41696,147.81031989973394L219.5312,148.81163132693158L219.57471999999999,147.1872033640583L219.64544,148.03080505827796L219.65632,145.56172086934802L219.68895999999998,147.65510056882061L220.03712000000002,149.90831280379376L220.22208,148.63041496959565L220.23296,150.4280307407809L220.23839999999998,151.38410769260318L220.70624,150.59486699705806L220.72256,151.97158113986833L220.86944,151.28469280371695L221.79968000000002,152.14605993155925L221.83776,144.5787750500243L222.1968,145.81893818723958L222.224,147.59910659307528L222.45248,146.52388608403157L222.78976,148.8708686976584L222.88224000000002,149.7715700142699L222.88768,149.44483055083037L223.24672,148.72284076341356L223.35552,148.121043967947L223.55679999999998,149.52750997254464L223.56224,147.55724325654518L223.57856,147.85347544295405L223.9376,148.12449120151115L224.22047999999998,147.41103924024884L224.30208000000002,147.84378001293553L224.38368,148.999644503813L224.47072,150.3870701019902L224.54144000000002,150.9452537675177L224.73183999999998,150.11134875734334L224.8352,150.30218881092688L224.87328000000002,150.76890136224716L226.1408,151.58571152792933L226.4672,151.43107364771518L226.6304,146.24228089172368L226.73376,149.04840383977051L227.21792,150.2250156452681L227.43008,150.71791032295965L227.45184,152.39305001410523L227.5008,150.85177655258644L227.53344,152.14389652791107L227.66944,153.0761233598452L227.97952,152.60562865748102L228.21344,149.2997482165087L228.77376,148.80212826699116L229.1056,148.87469297311907L229.40480000000002,150.29857921941831L229.58432000000002,150.73029910841927L229.7856,152.31737141350825L230.17728,152.85650164238706L230.20992,151.98061253821538L230.25887999999998,152.6174801856773L230.55264,151.7631982030407L230.96063999999998,153.58238917605541L231.01504,153.32382574813641L231.1456,153.85340909968522L231.53728,153.7962735230685L232.016,154.37557999995906L232.2064,154.2964570252589L232.53824,153.3680383795285L232.64159999999998,153.75460498902203L232.87552,153.1458290632388L233.25088,153.43496529314484L233.60448000000002,153.28466420341312L233.72416,152.75117562080862L234.42048000000003,149.57475350314007L234.96992,149.88377969315457L235.26912,150.0442781846582L235.35072,150.7006001434973L235.72608,150.80275563741944L235.91103999999999,152.44812039599788L236.3136,151.54132738954766L236.40064,151.28727856684915L236.46048,150.81073205707494L236.64544,149.99482865306507L237.08064,151.26944297746098L237.41248,151.85157109816473L237.41791999999998,152.03464248947085L237.49952000000002,150.73160374596688L237.73344,152.2429024511125L237.84224,152.80414598586924L238.07616,151.32854950825796L238.10336,151.5287698157162L238.49504000000002,152.68293078468668L239.26208,152.44103261748836L239.2784,152.87045521214145L239.3872,153.83320462176079L239.39264,153.40250665301994L239.40895999999998,153.97781099280394L240.13248,152.27472806812526L240.65472,153.23919873979364L240.76351999999997,152.02777633220322L240.97567999999998,153.2774000101687L241.03552,154.07636669886267L242.34656,151.53073370333584L242.58048,152.82108151428315L242.80352,153.29188128420114L243.18431999999999,153.22500434899555L243.33664,152.602054842719L243.61408,153.8329968212435L244.14176,153.2726046741276L244.18528,154.38145203238628L244.3104,154.74762220481148L244.3376,154.09543226644064L244.43008,153.56351635075876L244.70752000000002,154.1802705901188L244.87616,153.55460283605362" style="fill: none;" fill="none"></path></g></g></g></g><g opacity="0.2"><g><g><g><path stroke="rgb(255, 112, 67)" stroke-width="2px" d="M28.113919999999997,-6.344880884343951L28.4512,9.088476354425609L28.4784,19.696914846246898L28.592640000000003,4.6518776633522805L28.69056,10.726186058738023L28.880959999999998,-2.6654931848699164L28.89184,10.019638928500086L28.93536,8.792379032481819L29.49568,-1.268402099609375L29.70784,20.754343553022892L29.784,12.540625138716251L30.121280000000002,19.254042018543572L30.3552,5.777238845825195L30.39328,8.319845546375603L30.6544,21.386924223466366L30.72512,23.06586872447619L30.85568,10.219578309492618L31.0896,28.632381092418342L31.13312,2.7859259518710076L31.39968,14.522781198674977L31.47584,32.37792656638405L31.56832,3.748662775213063L31.60096,36.394098541953355L31.75328,21.16582731767133L32.34624,33.276673837141544L32.487680000000005,36.09070179679176L32.7216,36.66983309659091L33.00448,16.75459913773969L33.2112,30.369427767666906L33.62464,5.7615134499289695L34.065279999999994,31.636996529319077L34.36448,3.725915735418141L34.3808,18.88527454029432L34.456959999999995,19.10280661149457L34.47872,28.44736463373357L34.73984,36.86917062239215L34.77792,34.81133513017133L35.01728,25.517502698031336L35.18048,32.688013163479894L35.49056,33.69109743291682L35.648320000000005,36.75859130512586L35.73536,15.34542465209961L35.8224,-6.067564530806095L36.12704,23.223369598388672L36.40448,24.50407114895907L36.5024,47.92552055012098L36.55136,32.33127507296476L36.6384,32.63332921808416L36.65472,6.309803529219181L36.89408,27.36069193753329L37.236799999999995,18.86612319946289L37.35648,14.785359816117733L37.3728,27.740524291992188L37.41632,30.23711221868342L37.63392,26.166595805775017L37.7264,37.15515986355868L37.79712,31.894837466153234L38.28128,28.74931075356224L38.60768,24.603346391157658L39.10272,50.66828268224543L39.168,50.492471521550954L39.342079999999996,33.03243637084961L39.374719999999996,36.949047608809025L39.483520000000006,35.40896190296522L39.51072,32.40142978321424L39.755520000000004,39.59161628376356L39.8208,34.60320125926623L40.0112,16.217358502474696L40.2016,10.642188679088264L40.20704,31.31287436051801L40.457280000000004,32.56483346765691L40.54976,36.23258530009875L40.56064,38.26744998585096L40.58784,20.89800175753507L40.723839999999996,36.26936019550672L40.72928,19.865310842340648L40.794560000000004,32.03872715343127L40.82176,32.9708619551225L40.979519999999994,42.605267264626235L41.06112,28.83253652399236L41.093759999999996,28.782474517822266L41.81184,38.36899375915527L42.11104,49.392056465148926L42.3776,30.13177212801847L42.95968,15.752294193614631L43.34592,24.724350148981273L43.73216,52.43336192044346L43.74848,43.71829813176936L44.064,28.019399296153694L44.40128,35.22690842368385L44.77664,27.16555196588689L44.852799999999995,43.9980990669944L44.86368,35.478568770668716L44.869119999999995,34.55489852211693L45.184639999999995,38.266554919156164L46.13664,24.706942644986242L46.78944,22.17870330810547L46.88736,19.944678566672593L46.898239999999994,41.96069578690961L47.17024,10.35950192538175L47.55648,41.776219454678625L47.83936,25.927782752297134L47.9536,44.29151118885389L47.99168,39.04535553672096L48.57376,35.3053887974132L48.726079999999996,36.91625421697444L48.8784,43.858715577559025L49.161280000000005,50.29462320154363L49.49856,23.85894411260432L50.031679999999994,48.897231188687414L50.20032,54.315679463473245L50.22752,19.344736966219813L50.68992,28.397240898825913L50.7008,44.49554781480268L51.141439999999996,38.26084501093084L51.64192,46.10515551133588L51.7344,28.735406355424374L51.84864,55.431596149097786L52.38176,38.24565974148837L52.5776,44.945226235823185L52.59936,14.08801026777789L52.64288,49.18938558751887L53.25216,44.59210699254817L53.328320000000005,27.300398393110783L53.535039999999995,37.16135588559237L53.60032,62.863226890563965L53.8288,53.44484129819004L54.198719999999994,40.25417397238991L54.24768,29.691353017633617L54.264,37.62861156463623L54.677440000000004,53.47116860476406L54.68832,63.371053782376364L54.982079999999996,56.38295945254238L55.1344,73.7308026227084L55.705600000000004,50.78625401583584L56.1952,57.786215695467874L56.28224,49.354124155911535L56.358399999999996,40.35597237673673L56.690239999999996,37.70002399791369L57.21792,33.21240650523791L57.391999999999996,42.85468222878197L58.017599999999995,66.55838628248735L58.0992,30.607855016534984L58.33856,37.52047053250399L58.80096,40.06006795709783L58.89344,32.93075370788574L58.90976,54.721445603804156L59.105599999999995,68.97102312608199L59.143679999999996,63.542374177412555L59.33952,58.78903761777012L59.45376,34.59014563126996L59.791039999999995,99.04576561667703L59.89984,63.56628634712912L60.50368,55.366510911421344L60.558080000000004,64.78053691170432L60.93344,63.71945077722722L61.00416,51.02290656349875L61.0368,49.07774144952947L61.10752,43.344731244173914L61.4176,30.99927694147283L61.542719999999996,70.4372426813299L61.56992,75.03858765688808L61.890879999999996,55.8637821891091L62.674240000000005,53.259446750987664L62.968,45.7076687379317L63.12576,23.418633027510197L63.41952,55.18545280803333L63.63168,68.61316620219837L63.648,61.47753247347744L63.71328,63.59444236755371L63.88192,35.17417664961383L64.44768,44.33540032126686L64.4912,52.45570772344416L64.5728,27.109918941150994L65.10048,37.30641070279208L65.24192,63.439811879938304L65.36160000000001,43.53430019725451L65.86207999999999,65.86226359280674L65.90559999999999,36.11441334811124L66.12864,63.997299541126594L66.62912,60.71593102541836L66.97728,67.57517433166504L67.1296,35.50515070828524L67.13504,73.64426664872603L67.2384,60.74979695406826L67.36352,47.759832902388126L67.46688,45.344256227666676L67.73344,50.83952591635965L67.78784,49.39812902970746L67.80416,68.41916821219705L67.88576,57.244731209494844L68.06528,44.95282658663663L69.02271999999999,35.798547397960334L69.05536,51.329821846701876L69.41984,45.77885740453547L69.57216,54.01268395510586L69.62656,82.925799629905L69.81696000000001,33.9077807339755L70.18144000000001,32.630505128340275L70.35552,70.05524982105602L70.67648,51.833366307345315L70.86688,63.66351682489568L71.08448,45.93876569921321L71.70464000000001,75.61804303255947L71.89504,71.38089760867031L71.92768000000001,57.07508520646529L72.30304,53.402387358925566L72.5424,53.2035590952093L72.70016000000001,80.67017754641445L72.72736,38.96576404571533L72.77632,27.15297473560682L73.26592,66.31798371401699L73.28224,53.30713991685347L73.43456,47.98862275210294L73.48895999999999,74.39581402865322L73.80448000000001,38.93626542524859L73.99488,53.8871585672552L74.17984,71.20410650426692L74.50624,76.61853469501843L75.18079999999999,55.90889046408914L75.19712,43.72857596657494L75.50176,50.76265048980713L75.64320000000001,65.85337465459651L75.65952,73.65469880537553L75.77376,61.760288672013715L75.81184,65.9475341276689L76.12736000000001,47.602663820440114L76.16000000000001,57.350225622003734L76.46463999999999,48.50393425334582L77.39488,59.406363573941306L77.43296,44.22288426485929L77.57983999999999,62.10644028403543L77.88448,45.06986427307129L78.05856,57.55958635156804L78.40672,59.80926704406738L78.42304,63.07250274311413L78.53183999999999,89.16602715578946L78.71136000000001,58.566374345259234L79.14112,57.67883855646306L79.17920000000001,48.22541418942538L79.24992,62.28239805048162L79.57632,57.845699050209745L79.73952,60.079847249117776L79.86464,62.665131655606345L79.96256000000001,67.6402518532493L80.34335999999999,54.99989622289485L80.75135999999999,65.36304014379328L81.09952,89.42877552726053L81.92096000000001,69.55060195922852L82.06240000000001,85.5445255799727L82.51935999999999,62.73408265547319L83.10687999999999,57.82942581176758L83.14496,64.72681747783314L83.75968,31.07816626808861L83.776,79.06182757290928L83.89024,78.05040992390026L84.21119999999999,79.65217035466975L84.2656,70.96370393579656L84.44512,72.09445866671474L84.90752,45.41509767012164L85,30.264211134477108L85.07616,80.16414850408381L85.1632,61.124991937117144L85.25568,58.47029356522994L85.47328,76.9517850008878L85.72352,56.90989138863303L85.72896,54.682664524425164L85.84864,72.72270289334385L86.03904,75.50196214155717L86.18048,76.10770624334162L86.22944000000001,55.326834765347556L86.51232,63.01629101146351L86.52864000000001,76.18717427687211L86.71359999999999,90.66460800170898L86.73536,78.15763274106114L86.86048000000001,78.7140787298029L86.89312000000001,92.63207262212579L86.904,79.61787232485683L87.12159999999999,79.47892093658447L87.15424,45.18859949978915L87.22496000000001,78.82836177132346L87.25216,53.57782814719461L87.60032000000001,72.9728508862582L87.70368,72.53669877485795L87.75264,40.54515552520752L88.12256,61.40384379300205L88.13344,68.97837656194514L88.13888,73.75023174285889L88.45984,70.93196764859287L89.32480000000001,63.39454928311436L89.61312,71.88895598324864L89.72192,60.22676936062901L89.89056,67.51619252291592L89.93952,34.869738232005744L90.03200000000001,70.32843034917659L90.12448,66.59928157112815L90.29311999999999,52.80905844948508L90.57056,72.82372968847102L90.69568000000001,65.62517122788863L90.77184,64.59060530229048L91.1744,53.356137102300465L91.79456,67.52657838301225L92.3168,61.85804384404963L92.34400000000001,82.26615862412886L92.53984000000001,88.39289786598899L92.70848,24.32869980551979L93.23616,78.05516303669323L93.3776,92.88518359444357L93.39936,68.60349793867631L93.4864,76.1475830078125L93.71488000000001,96.32854374972257L94.06304,101.7024315920743L94.07936000000001,77.96526284651323L94.1664,60.98312386599453L94.68863999999999,65.45669035478072L94.97695999999999,47.74979426644066L95.49376,71.61899306557395L96.13568,81.77045371315695L96.288,68.97924848036332L96.60896,71.01824899153276L96.86464,74.15994080630215L97.25632,69.92289569161154L97.35968,78.9829613945701L97.59360000000001,68.6150257804177L98.01792,49.75181154771283L98.1104,79.40503935380416L98.25728000000001,57.935120842673555L98.37151999999999,73.03478024222635L98.4368,86.39079570770264L98.5184,71.23432272130793L98.54016,83.27239105918191L98.63264,64.79708021337336L98.82848,55.84189935164018L99.04608,72.91919318112461L99.2256,50.48210880973123L99.824,71.62000387365168L100.11232,78.07155201651834L100.13408000000001,51.221835136413574L100.24288,60.29265707189387L100.50944,81.61331549557774L100.6672,81.06574301286177L100.89568,72.92427808588201L101.17312,81.24604493921453L101.29823999999999,79.21054753390224L101.61919999999999,92.57501983642578L101.63552,85.6876899545843L101.98912,81.05267195268111L102.14688,42.486007343639045L102.33184,48.57602570273659L102.52224,84.80902767181396L102.7344,62.992185939442024L103.13152,71.84109306335449L103.23488,87.69079520485617L103.35455999999999,75.13523171164773L103.80064,65.05691961808638L104.56768,94.90022563934326L104.92672,82.31806477633388L104.96480000000001,84.91683691198176L105.01375999999999,83.19533044641668L105.10624,77.4406611702659L105.17152,74.97726015611129L105.20416,74.57586904005571L105.52512,81.8046591498635L105.79711999999999,104.42352693731134L106.0528,79.35095726359974L106.24864000000001,58.71986285122959L106.3792,74.93478306857021L106.39552,77.1487768346613L106.80352,80.85359677401455L106.83616,58.111448981545195L106.99936,103.2177062034607L107.04832,73.02234961769797L107.07007999999999,71.80967313593084L107.10272,84.76574811068447L107.6032,66.6811956058849L107.60864000000001,70.84595636887984L107.65216000000001,85.2699175747958L107.67392,98.44839347492565L107.7664,88.8830549066717L108.11456,83.21066232161088L108.21791999999999,77.1669096513228L108.40288,70.3045413277366L108.95232000000001,79.89890011874111L109.29504,96.64667823097922L109.54527999999999,85.05383612892844L109.78464,97.04158782958984L109.888,59.39887896451084L110.25247999999999,81.90273839777166L110.568,90.82174621928822L110.69312,87.27219720320268L111.37856000000001,76.23923475092107L111.38944,97.22983733090487L111.56352000000001,103.58099525625055L111.73216,71.40074339779942L112.05311999999999,84.28870842673562L112.83104,82.56457077373157L112.9616,85.15560366890647L113.01056,67.33394614132969L113.29344,64.36210866407914L113.30976,98.47058109803633L114.13119999999999,91.15123107216574L114.20736,89.55629938299005L114.76224,80.1439323425293L114.87648,95.87018472498114L115.6,73.60567847165196L115.99168,67.3287917917425L116.11135999999999,68.7300418506969L116.20384,88.78203582763672L116.45408,88.62292229045521L116.63904,90.37773140993986L116.99264,95.19001119787042L117.28640000000001,90.16641850904985L117.42784,88.81322427229448L117.45504,87.12667942047119L117.84128,65.50963817943226L118.03712,66.59792353890158L118.30368,92.5741556340998L118.64096,85.40063589269465L118.6464,89.71620767766778L118.83136,83.92864470048384L118.90752,68.83780479431152L119.136,88.65705056623979L120.04448000000001,98.60794682936235L120.21312,68.07293943925337L120.39808,79.38459942557596L120.78432000000001,106.40019685571845L120.98559999999999,72.4596844586459L121.16512,114.77497712048617L121.26304,89.74427110498603L121.27391999999999,79.29393534226851L121.39904,96.03038623116232L121.40448,99.50988470424305L121.40992,100.23980001969771L121.42623999999999,107.06751923127608L121.52959999999999,65.10636433688076L121.72,101.18435001373291L121.88864000000001,96.57976427945223L122.1008,101.29762996326794L122.1552,86.09077089483088L122.63936,98.07172086022116L122.71552,102.02417334643278L122.87328,131.07544179396197L122.91136,69.59830284118652L122.91680000000001,98.3735126582059L123.07455999999999,100.28755491430108L123.23776,93.37997800653632L123.61312,58.76605137911709L123.87968000000001,75.49861335754395L124.0592,72.9567088213834L124.26592,75.61127601970325L124.86976,85.48520426316695L125.00576,91.04390794580634L125.02208,95.81011494723234L125.07104,98.47827404195611L125.22336,80.76865803111683L125.41376,109.82435165752064L125.47904,92.42092175917192L125.8272,85.70863142880528L125.91968,76.78409116918391L126.2896,108.02126680720936L126.40928,97.05333172191273L126.5616,110.18008279800415L126.85536,98.19650550322099L127.57888,90.20746811953458L127.58431999999999,104.09861386906017L128.34592,70.23042826219039L129.00415999999998,68.34585762023926L129.04224,89.27122064070268L129.72224,119.0392793308605L129.98336,82.44092811237682L130.33696,55.235792593522504L130.44031999999999,82.54255676269531L130.59264,88.86507641185413L130.71232,63.103089332580566L130.82656,92.83300737901168L131.19648,100.08444807746194L131.4848,84.45238989049739L131.80032,99.14310797778043L132.03968,73.64348732341419L132.19744,95.39331479506059L133.20383999999999,103.3951377435164L133.28544,76.32520745017312L133.30176,119.8949708071622L133.42144,81.63833878257059L133.45408,111.56351640007712L133.71519999999998,94.61975340409712L133.7968,101.53357263044877L134.04703999999998,104.69947368448432L134.1232,79.66474758494984L134.18304,106.76291877573188L134.48224000000002,104.12803147055887L134.54208,95.69931957938455L134.57471999999999,112.1513128714128L134.89568,110.64832613684915L135.04255999999998,106.77270663868298L135.16768,97.30192106420343L135.54848,81.23487975380637L135.66816,106.60372807762839L135.84768,99.38279294967651L135.94016,99.98066663742065L135.97824,80.70253883708607L136.19584,77.01086711883545L136.29376,102.23348392139782L136.3264,102.40021324157715L136.34272,91.96068000793457L136.75616,95.80058557336982L136.76160000000002,80.30161068656228L136.77247999999997,86.95319080352783L137.01728,95.72510675950484L137.18592,93.13407386432995L137.3328,88.6107771613381L137.34912,111.29715303941207L137.37632,94.9638216712258L137.68096,114.35475873947144L137.76256,99.80533001639627L137.81152,109.91953351280905L137.82240000000002,105.24664878845215L138.08896000000001,99.58697618137707L138.39904,110.55005784468217L138.64383999999998,109.18681725588712L138.86688,119.64926728335294L138.9376,99.96713646975431L138.94304000000002,96.88686474886808L139.06272,84.95108864524148L139.08992,108.10414149544455L139.14976000000001,86.36910577253862L139.7536,100.34725431962447L139.86784,101.06438407030973L140.24319999999997,109.25606532530351L140.25952,104.27518892288208L140.26496,122.34362251108342L140.52608,113.2886610031128L140.65664,102.86963328448209L140.97216,101.10071143237028L141.37472,95.19976433840665L141.59232,102.05055080760609L141.63584,105.03061749718405L141.80992,110.27505246075717L141.88064,98.86740042946555L142.2288,98.08915922858499L142.5824,90.31185141476718L142.70752000000002,101.5827395699241L143.16448,103.1478061242537L143.1808,91.96084976196289L143.208,112.2433272708546L143.57247999999998,113.60304932160811L143.6704,102.09274625778198L144.0784,103.01067187569357L144.29056,109.85764273730192L144.296,113.69406834515658L145.15008,95.80568591031161L145.37856,106.28508433428678L145.384,111.27266987887296L145.73760000000001,130.25572081045672L145.77024,125.85292824831876L145.91168000000002,124.13221654024991L146.02592,114.45473228801382L146.05856,108.16661097786643L146.38496,113.64493998614225L146.70592,97.22185889157382L146.88,100.86571012843739L146.91807999999997,103.06437201933427L148.08224,83.39591797915371L148.21823999999998,112.26480115543713L148.28896,102.71012622659858L148.43583999999998,99.08723189614035L148.47392,113.67469709569757L148.56096,119.74502012946388L148.60448000000002,113.82209760492499L148.68064,94.22680369290438L148.83296,105.28534499081698L149.20832000000001,126.62651278755882L149.22464,87.5403545553034L149.45311999999998,110.1567531932484L149.64352,116.46161456541583L149.8448,99.15401467410001L150.33984,120.25398514487526L150.42687999999998,114.77931742234662L151.00896,99.59486588564786L151.04704,81.75016810677268L151.11232,125.94236933101308L151.38976,120.29046297073364L151.45504,107.53686982935126L151.94464,119.13838096098468L151.96096,124.75938437201759L152.76064,91.62559327212247L152.7824,113.97718334197998L152.78784,123.51018376783892L153.01631999999998,119.11571879820391L153.07616,105.63523119146173L153.10336,101.62540570172396L153.13056,117.74661783738568L153.31552000000002,94.75413686578925L153.36992,126.28219760547984L153.51136,110.55013500560413L153.75616,111.18342555652966L153.88128,114.7763968814503L154.15872000000002,140.51523954218084L154.28928,127.27785513617775L154.39264,122.42460289868441L154.4688,82.97094648534602L154.64831999999998,112.49122216484763L155.26304,87.94365154613148L155.5296,118.36186816475609L155.97024000000002,106.69283736835827L156.03008,124.592604897239L156.13888,131.85613092509183L156.46528,137.12828787890348L156.536,122.0150172927163L156.73728,118.91989595239812L156.84608,100.64029606905851L156.90592,132.778911894018L157.42816,129.6267956386913L158.1952,112.35386414961381L158.40736,120.10058151591909L158.56512,127.22718741677025L158.77728000000002,124.13080835342407L159.0384,114.0319097258828L159.29952,132.97245463457975L159.3104,114.48292688889936L159.35392000000002,134.87096439708364L159.51712,110.87466612729159L159.64224,122.2897989099676L159.7184,113.44250444932418L160.02848,112.46093650297685L160.55072,121.61928978833285L160.79552,118.96283986351708L160.81727999999998,119.47824009982023L161.14368,109.80000738664107L161.39392,143.0490306073969L161.55712,129.05872535705566L161.67680000000001,116.05603361129761L161.72032,119.94857064160433L162.384,128.44531145962802L162.5472,130.13713797655973L162.66688,115.52086860483342L162.84640000000002,122.79120987111872L163.24896,124.21931964700872L163.46112000000002,119.441256869923L163.92896,120.07491007718173L164.32608,128.1192525516857L164.46208,129.67738233913076L164.5328,123.41660300168124L164.58175999999997,120.76702811501244L165.01152,123.03902760418978L165.33248,123.26150954853404L165.95264,126.03770550814542L166.03423999999998,143.8356649875641L166.464,131.87797904014587L166.80128,123.35014815763995L166.93728,138.10957225886258L167.42144,116.23919820785522L167.62272000000002,119.86933409083974L167.81312,137.013262163509L167.99264,127.94030865755948L168.21568,104.53733929720792L168.8032,133.9867581020702L168.89024,123.26475416530263L169.00448,138.45797696980563L169.05344,128.27688845721158L169.14048,128.22240513021296L169.4832,118.5891070799394L169.48864,134.4378427808935L169.5648,126.58622707020152L170.16320000000002,128.5814734805714L170.23391999999998,123.01263471083209L170.29376,119.5660762353377L170.83776,140.9618045200001L171.20224,128.76754318584096L171.43072,124.55663247541949L172.29023999999998,121.03307511589745L172.7472,138.55563183264297L172.75808,130.1797250184146L172.98112,103.8397158275951L172.98656,143.33199128237638L173.0736,136.8082976774736L173.14432,127.26719535480845L173.1552,110.74622791463678L173.69376,121.62082143263385L174.50976,134.31736757538536L174.85792,125.06216382980347L174.89056,143.25689441507512L174.9232,133.58336466008967L174.94495999999998,122.32646963813087L174.9504,138.73319454626602L175.35840000000002,146.38393915783274L175.576,144.43152863329107L175.87519999999998,115.21647648377851L176.52800000000002,114.62565916234797L176.57152,131.63417946208608L176.83264,115.7188172340393L177.1808,140.88360192558983L177.19712,135.90316534042358L177.36576,122.51839971542358L177.42015999999998,141.17992880127647L177.45824,125.73771927573463L177.55616,133.84182288429955L177.86623999999998,119.43259941447866L177.97504,133.5680038495497L177.99136,139.1346049525521L178.1056,131.6065307747234L178.57344,132.9511061364954L179.06848000000002,139.93219039656898L179.07935999999998,139.71016370166433L179.25344,134.2872323773124L179.35136,126.45030039007014L180.89087999999998,130.80023579163984L181.03232,133.64930252595383L181.27168,142.28028598698702L181.57088000000002,140.4750657081604L181.90816,133.42791626670143L181.97888,133.6588492610238L182.47936,127.15094856782392L182.63711999999998,139.7742130539634L182.84928,146.86172923174772L183.20288,105.24926840175281L184.37248,128.63738814267245L184.80224,141.38511898300865L184.94368,139.15677135640925L185.06336,138.52921000393954L185.16672,131.3863848772916L185.27552,132.4558950554241L185.30272,136.59678030014038L185.38976,144.38586287064987L185.45504,141.73962905190209L185.54208,143.98666312477806L185.68895999999998,120.0792465209961L186.05888,132.6581550511447L186.32544,147.0307039347562L186.39616,149.53804616494614L186.43968,134.89828900857407L186.95648,137.01083352349022L187.52768,134.7162200971083L187.56575999999998,132.74808224764737L187.61472,151.1838519789956L187.88672000000003,138.67913367531517L187.90304,136.54356241226196L188.01728,137.1612240184437L188.08256,145.2113284847953L188.18592,135.07411367242986L188.28928,143.3148808479309L189.02912,138.8635289885781L189.46976,143.81929336894643L189.4752,146.3323937329379L189.66016,136.3684225515886L189.76351999999997,152.8821387941187L190.01376,146.73133498972112L190.40544,140.81839708848435L190.43264,142.32160373167557L190.57408,129.5721483447335L190.82432,142.59435215863314L190.90592,144.52623401988637L191.352,144.23905842954463L191.58592,141.51767951791936L191.69472000000002,139.68173375996676L191.72735999999998,139.26682597940618L191.79808,141.09780836105347L191.9504,148.72692476619375L192.18431999999999,145.30471249060196L192.7664,139.49648774753916L192.9024,151.73196651718834L192.94047999999998,142.0856205550107L192.96224,141.56343980268997L193.5008,136.07165971669284L193.51712,138.29781211506236L193.73472,143.26144883849403L194.24608,141.57947384227407L194.32224000000002,151.66616561196068L194.42015999999998,139.7871876629916L194.64864,146.52851171927017L195.18720000000002,143.7085558717901L196.12832,138.49697602878916L196.41664,146.0207407691262L197.00416,148.63839321786708L197.06400000000002,148.13332772254944L197.73312,150.65317098660904L198.05408,151.47360860217702L198.25536,145.90661012042654L198.3696,140.59323573112488L198.57088000000002,149.2108211625706L198.76672,144.1278733990409L198.77215999999999,143.4934427954934L198.90816,145.36482084881175L199.24543999999997,148.71044994484294L199.63168000000002,130.58892674879596L199.77312,146.83448660373688L199.99072,149.49670044942337L200.24095999999997,147.34885770624334L200.59456,144.08032876794988L200.63264,143.62528959187594L200.67616,140.10007905960083L200.93728,137.36989801580256L200.98624,148.81872986663473L201.3072,151.05671682141045L201.37792000000002,145.05641250176865L202.16672,138.92593674226242L202.23200000000003,143.52882493625987L202.41152000000002,144.4026106487621L202.64,150.49981751225212L202.9936,138.51013389500704L203.39616,153.93429548090154L203.65184000000002,131.3450536294417L203.84768,151.6387763781981L204.00544,142.8460356538946L204.16320000000002,141.01767867261714L204.23391999999998,147.9113222468983L204.25024000000002,143.64578739079562L204.60928,147.912823991342L204.6256,148.32966272397476L204.85952,147.7023830088702L205.12608,141.44684579155663L205.43072,144.2978029684587L206.1488,150.43106905980545L206.18688,146.77732289921153L206.19232,149.01979965513402L206.2304,149.1269916079261L206.58399999999997,151.53139055858958L206.73631999999998,149.20862882787532L206.8016,146.85583606633273L206.87232,148.86342243714768L206.9104,147.15004776824605L207.53056,146.09938607432625L207.55231999999998,146.60399824922735L207.6992,149.71192926710302L207.71008,141.99039433219215L208.07456,149.92561100829732L208.19968,146.7026542750272L208.58048,147.28274429928172L208.63488,149.55645386739212L208.72735999999998,150.08067359707573L208.76543999999998,149.0988539132205L208.78176000000002,149.57042674584824L208.85792,148.1738873611797L208.91776,150.96883535385132L209.6576,151.1205375844782L209.85888,152.44720196723938L210.15807999999998,153.44879703088242L210.19616000000002,153.6396352811293L210.54976,148.41574248400602L210.68576000000002,150.78598325902766L210.73472,151.6144658652219L210.8,150.05698615854436L210.90336,147.40813272649592L210.99584,142.3524372360923L211.07744000000002,151.13156580924988L211.2896,151.3990788676522L211.35487999999998,152.67892200296575L211.49088,144.06048683686691L211.65408000000002,147.07781260663813L211.69216,143.1079526164315L212.00768,152.1945462443612L212.25792,147.37363214926285L212.36128,144.65872318094426L212.39936,154.754496791146L212.64960000000002,151.9465230703354L212.93248,136.68156472119418L212.9488,147.67239827459508L213.1392,148.78458905220032L213.64512000000002,141.44923778013748L213.83007999999998,147.3498501886021L213.84640000000002,143.1351421963085L214.12928000000002,149.21301831982353L214.13472,149.1441898129203L214.24896,142.60407829284668L214.54816,151.02444233677605L215.02144,149.99583419886503L215.02688,150.17222599549729L215.16832,150.57084317640823L215.2336,149.61108476465398L215.3152,151.3017480806871L215.424,149.76364926858383L215.47296,155.78515885634854L215.52192,147.45938686891037L215.68512,147.83456738428634L215.95167999999998,149.82067504796115L216.25088,150.03489884463224L216.42496000000003,151.94344145601445L216.54464000000002,149.3105487606742L216.94176,137.26751511747187L217.76864,146.68730889667165L218.0352,150.14347004890442L218.23104,154.18501928719607L218.56832000000003,150.2160611152649L218.9872,151.77780974995005L219.00352,139.23605034568092L219.41696,149.88899139924484L219.5312,150.87243435599586L219.57471999999999,143.84396171569824L219.64544,149.76702505891973L219.65632,140.48008888418025L219.68895999999998,151.9634936506098L220.03712000000002,154.5456578623165L220.22208,146.0003683567047L220.23296,154.12771090594205L220.23839999999998,153.35181346806613L220.70624,148.97052758390254L220.72256,154.80500199036163L220.86944,149.87100518833506L221.79968000000002,153.91884304176676L221.83776,129.00451595133L222.1968,148.37132287025452L222.224,151.26287826624784L222.45248,144.31097047979182L222.78976,153.70120294527572L222.88224000000002,151.6253069747578L222.88768,148.77236676216125L223.24672,147.23691071163523L223.35552,146.88248359073293L223.55679999999998,152.42216324806213L223.56224,143.50222949548203L223.57856,148.4631520834836L223.9376,148.68226981163025L224.22047999999998,145.94268092242154L224.30208000000002,148.73440551757812L224.38368,151.37853380766782L224.47072,153.24253624135798L224.54144000000002,152.09405378861862L224.73183999999998,148.3950855406848L224.8352,150.69495748389852L224.87328000000002,151.72944431955165L226.1408,153.26679177717727L226.4672,151.1128128116781L226.6304,135.56320589238948L226.73376,154.8236966349862L227.21792,152.64660507982427L227.43008,151.7323388186368L227.45184,155.84066167202863L227.5008,147.6796755140478L227.53344,154.80321378599513L227.66944,154.9947431087494L227.97952,151.63730164007706L228.21344,142.49590253829956L228.77376,147.77797467058355L229.1056,149.0240386832844L229.40480000000002,153.22908516363663L229.58432000000002,151.6188235282898L229.7856,155.58373123407364L230.17728,153.96608770977366L230.20992,150.17794169079173L230.25887999999998,153.92822002280843L230.55264,150.00499705834824L230.96063999999998,157.32647334987468L231.01504,152.79167532920837L231.1456,154.9433467008851L231.53728,153.6786825656891L232.016,155.5678529631008L232.2064,154.13361371647227L232.53824,151.45725627378982L232.64159999999998,154.5501992648298L232.87552,151.89290491017428L233.25088,154.0300377173857L233.60448000000002,152.97532893310893L233.72416,151.65320064804772L234.42048000000003,143.03734651478854L234.96992,150.51978772336787L235.26912,150.3746007680893L235.35072,152.051378976215L235.72608,151.0130022655834L235.91103999999999,155.8344521468336L236.3136,149.675053097985L236.40064,150.76441967487335L236.46048,149.8299497907812L236.64544,148.31561461361972L237.08064,153.89273178577423L237.41248,153.04965129765597L237.41791999999998,152.41142244772476L237.49952000000002,148.049814527685L237.73344,155.35331232439387L237.84224,153.95924353599548L238.07616,148.2916185314005L238.10336,151.94084402647886L238.49504000000002,155.0583140633323L239.26208,151.94318103790283L239.2784,153.7542515613816L239.3872,155.81464300914243L239.39264,152.5160854512995L239.40895999999998,155.161847141656L240.13248,148.769606330178L240.65472,155.2241796634414L240.76351999999997,149.53454305908897L240.97567999999998,155.84925546971235L241.03552,155.7207232171839L242.34656,146.29155631498855L242.58048,155.47675147381696L242.80352,154.2608361623504L243.18431999999999,153.0873646627773L243.33664,151.3199599872936L243.61408,156.36640340089798L244.14176,152.1192593682896L244.18528,156.66357518868014L244.3104,155.50123849240217L244.3376,152.75315756147558L244.43008,152.4687780900435L244.70752000000002,155.44961494207382L244.87616,152.26691354404795" style="fill: none;" fill="none"></path></g></g></g></g></g></g><g transform="translate(58, 178)" clip-path="url(#clip_1)"><clipPath id="clip_1"><rect width="272" height="22"></rect></clipPath><g><g><line x1="0" y1="0" x2="0" y2="5" style="visibility: inherit;" fill="rgb(0, 0, 0)" stroke="rgb(204, 204, 204)" stroke-width="1px"></line><line x1="27.200000000000003" y1="0" x2="27.200000000000003" y2="5" style="visibility: inherit;" fill="rgb(0, 0, 0)" stroke="rgb(204, 204, 204)" stroke-width="1px"></line><line x1="54.400000000000006" y1="0" x2="54.400000000000006" y2="5" style="visibility: inherit;" fill="rgb(0, 0, 0)" stroke="rgb(204, 204, 204)" stroke-width="1px"></line><line x1="81.6" y1="0" x2="81.6" y2="5" style="visibility: inherit;" fill="rgb(0, 0, 0)" stroke="rgb(204, 204, 204)" stroke-width="1px"></line><line x1="108.80000000000001" y1="0" x2="108.80000000000001" y2="5" style="visibility: inherit;" fill="rgb(0, 0, 0)" stroke="rgb(204, 204, 204)" stroke-width="1px"></line><line x1="136" y1="0" x2="136" y2="5" style="visibility: inherit;" fill="rgb(0, 0, 0)" stroke="rgb(204, 204, 204)" stroke-width="1px"></line><line x1="163.2" y1="0" x2="163.2" y2="5" style="visibility: inherit;" fill="rgb(0, 0, 0)" stroke="rgb(204, 204, 204)" stroke-width="1px"></line><line x1="190.39999999999998" y1="0" x2="190.39999999999998" y2="5" style="visibility: inherit;" fill="rgb(0, 0, 0)" stroke="rgb(204, 204, 204)" stroke-width="1px"></line><line x1="217.60000000000002" y1="0" x2="217.60000000000002" y2="5" style="visibility: inherit;" fill="rgb(0, 0, 0)" stroke="rgb(204, 204, 204)" stroke-width="1px"></line><line x1="244.8" y1="0" x2="244.8" y2="5" style="visibility: inherit;" fill="rgb(0, 0, 0)" stroke="rgb(204, 204, 204)" stroke-width="1px"></line><line x1="272" y1="0" x2="272" y2="5" style="visibility: inherit;" fill="rgb(0, 0, 0)" stroke="rgb(204, 204, 204)" stroke-width="1px"></line></g><g transform="translate(0, 8)"><text x="0" y="0" dx="0em" dy="0.95em" style="text-anchor: middle; visibility: hidden; font-family: &quot;Helvetica Neue&quot;, sans-serif; font-size: 12px; font-weight: 200;" fill="rgb(50, 49, 63)" stroke="none" stroke-width="1px">-5k</text><text x="27.200000000000003" y="0" dx="0em" dy="0.95em" style="text-anchor: middle; visibility: inherit; font-family: &quot;Helvetica Neue&quot;, sans-serif; font-size: 12px; font-weight: 200;" fill="rgb(50, 49, 63)" stroke="none" stroke-width="1px">0</text><text x="54.400000000000006" y="0" dx="0em" dy="0.95em" style="text-anchor: middle; visibility: hidden; font-family: &quot;Helvetica Neue&quot;, sans-serif; font-size: 12px; font-weight: 200;" fill="rgb(50, 49, 63)" stroke="none" stroke-width="1px">5k</text><text x="81.6" y="0" dx="0em" dy="0.95em" style="text-anchor: middle; visibility: inherit; font-family: &quot;Helvetica Neue&quot;, sans-serif; font-size: 12px; font-weight: 200;" fill="rgb(50, 49, 63)" stroke="none" stroke-width="1px">10k</text><text x="108.80000000000001" y="0" dx="0em" dy="0.95em" style="text-anchor: middle; visibility: hidden; font-family: &quot;Helvetica Neue&quot;, sans-serif; font-size: 12px; font-weight: 200;" fill="rgb(50, 49, 63)" stroke="none" stroke-width="1px">15k</text><text x="136" y="0" dx="0em" dy="0.95em" style="text-anchor: middle; visibility: inherit; font-family: &quot;Helvetica Neue&quot;, sans-serif; font-size: 12px; font-weight: 200;" fill="rgb(50, 49, 63)" stroke="none" stroke-width="1px">20k</text><text x="163.2" y="0" dx="0em" dy="0.95em" style="text-anchor: middle; visibility: hidden; font-family: &quot;Helvetica Neue&quot;, sans-serif; font-size: 12px; font-weight: 200;" fill="rgb(50, 49, 63)" stroke="none" stroke-width="1px">25k</text><text x="190.39999999999998" y="0" dx="0em" dy="0.95em" style="text-anchor: middle; visibility: inherit; font-family: &quot;Helvetica Neue&quot;, sans-serif; font-size: 12px; font-weight: 200;" fill="rgb(50, 49, 63)" stroke="none" stroke-width="1px">30k</text><text x="217.60000000000002" y="0" dx="0em" dy="0.95em" style="text-anchor: middle; visibility: hidden; font-family: &quot;Helvetica Neue&quot;, sans-serif; font-size: 12px; font-weight: 200;" fill="rgb(50, 49, 63)" stroke="none" stroke-width="1px">35k</text><text x="244.8" y="0" dx="0em" dy="0.95em" style="text-anchor: middle; visibility: inherit; font-family: &quot;Helvetica Neue&quot;, sans-serif; font-size: 12px; font-weight: 200;" fill="rgb(50, 49, 63)" stroke="none" stroke-width="1px">40k</text><text x="272" y="0" dx="0em" dy="0.95em" style="text-anchor: middle; visibility: hidden; font-family: &quot;Helvetica Neue&quot;, sans-serif; font-size: 12px; font-weight: 200;" fill="rgb(50, 49, 63)" stroke="none" stroke-width="1px">45k</text></g><line x1="0" y1="0" x2="272" y2="0" fill="rgb(0, 0, 0)" stroke="rgb(204, 204, 204)" stroke-width="1px"></line></g></g></g></g></svg>